<?xml version="1.0" encoding="UTF-8"?>
<svg id="_Слой_2" data-name="Слой_2" xmlns="http://www.w3.org/2000/svg" viewBox="0 0 1932.1 2026">
  <defs>
    <style>
      .cls-1 {
        stroke-width: 7px;
      }

      .cls-1, .cls-2 {
        fill: none;
      }

      .cls-1, .cls-2, .cls-3 {
        stroke: #222221;
        stroke-miterlimit: 10;
      }

      .cls-2, .cls-3 {
        stroke-width: 2px;
      }

      .cls-3 {
        fill: #222221;
      }
    </style>
  </defs>
  <g id="Object">
    <g>
      <g id="_Слой_2-2" data-name="_Слой_2">
        <g id="_Слой_1-2">
          <g>
            <g>
              <line class="cls-2" x1="377.1" y1="2022" x2="356.1" y2="2022"/>
              <line class="cls-2" x1="356.1" y1="2022" x2="356.1" y2="1835"/>
              <line class="cls-2" x1="356.1" y1="1847" x2="377.1" y2="1847"/>
              <line class="cls-2" x1="407.1" y1="2022" x2="797.1" y2="2022"/>
              <line class="cls-2" x1="407.1" y1="2022" x2="797.1" y2="2022"/>
              <line class="cls-2" x1="429.1" y1="2022" x2="429.1" y2="1847"/>
              <line class="cls-2" x1="407.1" y1="1847" x2="497.1" y2="1847"/>
              <line class="cls-2" x1="497.1" y1="1847" x2="497.1" y2="1840"/>
              <line class="cls-2" x1="497.1" y1="1840" x2="568.1" y2="1840"/>
              <line class="cls-2" x1="568.1" y1="1840" x2="568.1" y2="1854"/>
              <line class="cls-2" x1="589.1" y1="1847" x2="568.1" y2="1847"/>
              <line class="cls-2" x1="619.1" y1="1847" x2="723.1" y2="1847"/>
              <line class="cls-2" x1="722.1" y1="1847" x2="722.1" y2="1911"/>
              <line class="cls-2" x1="722.1" y1="1878" x2="648.1" y2="1878"/>
              <line class="cls-2" x1="648.1" y1="1881" x2="648.1" y2="1877"/>
              <line class="cls-2" x1="722.1" y1="2022" x2="722.1" y2="1934"/>
              <line class="cls-2" x1="780.1" y1="2022" x2="780.1" y2="1898"/>
              <line class="cls-2" x1="780.1" y1="1899" x2="797.1" y2="1899"/>
              <line class="cls-2" x1="780.1" y1="1964" x2="797.1" y2="1964"/>
              <line class="cls-2" x1="820.1" y1="2022" x2="920.1" y2="2022"/>
              <line class="cls-2" x1="900.1" y1="2022" x2="900.1" y2="1898"/>
              <line class="cls-2" x1="886.1" y1="1899" x2="920.1" y2="1899"/>
              <line class="cls-2" x1="841.1" y1="2022" x2="841.1" y2="1898"/>
              <line class="cls-2" x1="820.1" y1="1899" x2="856.1" y2="1899"/>
              <line class="cls-2" x1="841.1" y1="1965" x2="822.1" y2="1965"/>
              <line class="cls-2" x1="900.1" y1="1964" x2="920.1" y2="1964"/>
              <line class="cls-2" x1="943.1" y1="2022" x2="1928.1" y2="2022"/>
              <line class="cls-2" x1="962.1" y1="2022" x2="962.1" y2="1898"/>
              <line class="cls-2" x1="962.1" y1="1899" x2="943.1" y2="1899"/>
              <line class="cls-2" x1="962.1" y1="1965" x2="943.1" y2="1965"/>
              <line class="cls-2" x1="1067.1" y1="2022" x2="1067.1" y2="1847"/>
              <line class="cls-2" x1="1067.1" y1="1878" x2="1093.1" y2="1878"/>
              <line class="cls-2" x1="1143.1" y1="2022" x2="1143.1" y2="1878"/>
              <line class="cls-2" x1="1156.1" y1="1878" x2="1123.1" y2="1878"/>
              <line class="cls-2" x1="1386.1" y1="2022" x2="1386.1" y2="1878"/>
              <line class="cls-2" x1="1412.1" y1="1878" x2="1186.1" y2="1878"/>
              <line class="cls-2" x1="1618.1" y1="2022" x2="1618.1" y2="1878"/>
              <line class="cls-2" x1="1651.1" y1="1878" x2="1441.1" y2="1878"/>
              <line class="cls-2" x1="1928.1" y1="2022" x2="1928.1" y2="1722"/>
              <line class="cls-2" x1="1928.1" y1="1748" x2="1784.1" y2="1748"/>
              <line class="cls-2" x1="1928.1" y1="1878" x2="1681.1" y2="1878"/>
              <line class="cls-2" x1="1928.1" y1="1796" x2="1754.1" y2="1796"/>
              <line class="cls-2" x1="1754.1" y1="1796" x2="1754.1" y2="1790"/>
              <line class="cls-2" x1="1812.1" y1="1796" x2="1812.1" y2="1790"/>
              <line class="cls-2" x1="1754.1" y1="1710" x2="1754.1" y2="1761"/>
              <line class="cls-2" x1="1754.1" y1="1749" x2="1764.1" y2="1749"/>
              <line class="cls-2" x1="1754.1" y1="1725" x2="1736.1" y2="1725"/>
              <line class="cls-2" x1="1693.1" y1="1753" x2="1693.1" y2="1700"/>
              <line class="cls-2" x1="1693.1" y1="1725" x2="1709.1" y2="1725"/>
              <line class="cls-2" x1="1644.1" y1="1743" x2="1644.1" y2="1692"/>
              <line class="cls-2" x1="1644.1" y1="1719" x2="1563.1" y2="1719"/>
              <line class="cls-2" x1="1602.1" y1="1753" x2="1602.1" y2="1692"/>
              <line class="cls-2" x1="1563.1" y1="1625" x2="1563.1" y2="1787"/>
              <line class="cls-2" x1="1563.1" y1="1725" x2="1498.1" y2="1725"/>
              <line class="cls-2" x1="1498.1" y1="1714" x2="1498.1" y2="1731"/>
              <line class="cls-2" x1="1694.1" y1="1787" x2="1067.1" y2="1787"/>
              <line class="cls-2" x1="1067.1" y1="1817" x2="1067.1" y2="1661"/>
              <line class="cls-2" x1="1067.1" y1="1663" x2="1137.1" y2="1663"/>
              <line class="cls-2" x1="1129.1" y1="1663" x2="1129.1" y2="1694"/>
              <line class="cls-2" x1="1067.1" y1="1725" x2="1129.1" y2="1725"/>
              <line class="cls-2" x1="1129.1" y1="1714" x2="1129.1" y2="1731"/>
              <line class="cls-2" x1="1129.1" y1="1787" x2="1129.1" y2="1751"/>
              <line class="cls-2" x1="1182.1" y1="1787" x2="1182.1" y2="1751"/>
              <line class="cls-2" x1="1234.1" y1="1787" x2="1234.1" y2="1661"/>
              <line class="cls-2" x1="1300.1" y1="1663" x2="1167.1" y2="1663"/>
              <line class="cls-2" x1="1182.1" y1="1663" x2="1182.1" y2="1694"/>
              <line class="cls-2" x1="1182.1" y1="1725" x2="1289.1" y2="1725"/>
              <line class="cls-2" x1="1288.1" y1="1714" x2="1288.1" y2="1731"/>
              <line class="cls-2" x1="1182.1" y1="1714" x2="1182.1" y2="1731"/>
              <line class="cls-2" x1="1288.1" y1="1787" x2="1288.1" y2="1751"/>
              <line class="cls-2" x1="1340.1" y1="1787" x2="1340.1" y2="1751"/>
              <line class="cls-2" x1="1693.1" y1="1787" x2="1693.1" y2="1774"/>
              <line class="cls-2" x1="1928.1" y1="1682" x2="1928.1" y2="577"/>
              <line class="cls-2" x1="1928.1" y1="578" x2="1792.1" y2="578"/>
              <line class="cls-2" x1="1772.1" y1="578" x2="1621.1" y2="578"/>
              <line class="cls-2" x1="1643.1" y1="578" x2="1643.1" y2="583"/>
              <line class="cls-2" x1="1691.1" y1="578" x2="1691.1" y2="711"/>
              <line class="cls-2" x1="1641.1" y1="704" x2="1720.1" y2="704.2"/>
              <line class="cls-2" x1="1643.1" y1="704" x2="1643.1" y2="671"/>
              <line class="cls-2" x1="1691.1" y1="649" x2="1758.1" y2="649"/>
              <line class="cls-2" x1="1757.1" y1="649" x2="1757.1" y2="704"/>
              <line class="cls-2" x1="1740.1" y1="704" x2="1772.1" y2="704"/>
              <line class="cls-2" x1="1691.1" y1="644" x2="1643.1" y2="644"/>
              <line class="cls-2" x1="1643.1" y1="604" x2="1643.1" y2="650"/>
              <line class="cls-2" x1="1756.1" y1="611" x2="1756.1" y2="624"/>
              <line class="cls-2" x1="1756.1" y1="623" x2="1772.1" y2="623"/>
              <line class="cls-2" x1="1792.1" y1="704" x2="1829.1" y2="704"/>
              <line class="cls-2" x1="1809.1" y1="704" x2="1809.1" y2="686"/>
              <line class="cls-2" x1="1875.1" y1="716" x2="1875.1" y2="630"/>
              <line class="cls-2" x1="1875.1" y1="578" x2="1875.1" y2="610"/>
              <line class="cls-2" x1="1928.1" y1="652" x2="1907.1" y2="652"/>
              <line class="cls-2" x1="1908.1" y1="651" x2="1908.1" y2="663"/>
              <line class="cls-2" x1="1875.1" y1="663" x2="1887.1" y2="663"/>
              <line class="cls-2" x1="1875.1" y1="704" x2="1850.1" y2="704"/>
              <line class="cls-2" x1="1928.1" y1="1010" x2="1808.1" y2="1010"/>
              <line class="cls-2" x1="1809.1" y1="984" x2="1803.1" y2="984"/>
              <line class="cls-2" x1="1928.1" y1="941" x2="1809.1" y2="941"/>
              <line class="cls-2" x1="1809.1" y1="924" x2="1809.1" y2="953"/>
              <line class="cls-2" x1="1928.1" y1="879" x2="1809.1" y2="879"/>
              <line class="cls-2" x1="1809.1" y1="893" x2="1809.1" y2="866"/>
              <line class="cls-2" x1="1928.1" y1="815" x2="1809.1" y2="815"/>
              <line class="cls-2" x1="1809.1" y1="836" x2="1809.1" y2="799"/>
              <line class="cls-2" x1="1851.1" y1="815" x2="1851.1" y2="757"/>
              <line class="cls-2" x1="1808.1" y1="757" x2="1857.1" y2="757"/>
              <line class="cls-2" x1="1809.1" y1="757" x2="1809.1" y2="778"/>
              <line class="cls-2" x1="1723.1" y1="946" x2="1771.1" y2="946"/>
              <line class="cls-2" x1="1733.1" y1="946" x2="1733.1" y2="891"/>
              <line class="cls-2" x1="1689.1" y1="892" x2="1771.1" y2="892"/>
              <line class="cls-2" x1="1770.1" y1="867" x2="1770.1" y2="902"/>
              <line class="cls-2" x1="1691.1" y1="837" x2="1691.1" y2="946"/>
              <line class="cls-2" x1="1685.1" y1="946" x2="1699.1" y2="946"/>
              <line class="cls-2" x1="1691.1" y1="837" x2="1691.1" y2="738"/>
              <line class="cls-2" x1="1691.1" y1="742" x2="1743.1" y2="742"/>
              <line class="cls-2" x1="1691.1" y1="840" x2="1771.1" y2="840"/>
              <line class="cls-2" x1="1770.1" y1="742" x2="1770.1" y2="847"/>
              <line class="cls-2" x1="1770.1" y1="742" x2="1764.1" y2="742"/>
              <line class="cls-2" x1="1928.1" y1="757" x2="1871.1" y2="757"/>
              <line class="cls-2" x1="1875.1" y1="757" x2="1875.1" y2="736"/>
              <line class="cls-2" x1="1875.1" y1="659" x2="1808.1" y2="659"/>
              <line class="cls-2" x1="1808.1" y1="649" x2="1808.1" y2="665"/>
              <line class="cls-2" x1="1809.1" y1="608" x2="1809.1" y2="628"/>
              <line class="cls-2" x1="1808.1" y1="623" x2="1792.1" y2="623"/>
              <line class="cls-2" x1="1600.1" y1="578" x2="1546.1" y2="578"/>
              <line class="cls-2" x1="1568.1" y1="619" x2="1616.1" y2="619"/>
              <line class="cls-2" x1="1616.1" y1="619" x2="1616.1" y2="628"/>
              <line class="cls-2" x1="1568.1" y1="578" x2="1568.1" y2="714"/>
              <line class="cls-2" x1="1568.1" y1="706" x2="1543.1" y2="706"/>
              <line class="cls-2" x1="1616.1" y1="657" x2="1616.1" y2="742"/>
              <line class="cls-2" x1="1657.1" y1="741" x2="1568.1" y2="741"/>
              <line class="cls-2" x1="1568.1" y1="735" x2="1568.1" y2="973"/>
              <line class="cls-2" x1="1568.1" y1="971" x2="1657.1" y2="971"/>
              <line class="cls-2" x1="1656.1" y1="971" x2="1656.1" y2="935"/>
              <line class="cls-2" x1="1656.1" y1="945" x2="1661.1" y2="945"/>
              <line class="cls-2" x1="1568.1" y1="915" x2="1656.1" y2="915"/>
              <line class="cls-2" x1="1656.1" y1="919" x2="1656.1" y2="891"/>
              <line class="cls-2" x1="1656.1" y1="874" x2="1656.1" y2="829"/>
              <line class="cls-2" x1="1656.1" y1="860" x2="1626.1" y2="860"/>
              <line class="cls-2" x1="1656.1" y1="833" x2="1596.1" y2="833"/>
              <line class="cls-2" x1="1600.1" y1="833" x2="1600.1" y2="860"/>
              <line class="cls-2" x1="1600.1" y1="860" x2="1610.1" y2="860"/>
              <line class="cls-2" x1="1600.1" y1="833" x2="1600.1" y2="764"/>
              <line class="cls-2" x1="1657.1" y1="788" x2="1568.1" y2="788"/>
              <line class="cls-2" x1="1656.1" y1="788" x2="1656.1" y2="776"/>
              <line class="cls-2" x1="1656.1" y1="741" x2="1656.1" y2="760"/>
              <line class="cls-2" x1="1600.1" y1="741" x2="1600.1" y2="748"/>
              <line class="cls-2" x1="1454.1" y1="1663" x2="1330.1" y2="1663"/>
              <line class="cls-2" x1="1391.1" y1="1663" x2="1391.1" y2="1787"/>
              <line class="cls-2" x1="1340.1" y1="1724" x2="1445.1" y2="1724"/>
              <line class="cls-2" x1="1340.1" y1="1714" x2="1340.1" y2="1731"/>
              <line class="cls-2" x1="1340.1" y1="1663" x2="1340.1" y2="1694"/>
              <line class="cls-2" x1="1288.1" y1="1663" x2="1288.1" y2="1695"/>
              <line class="cls-2" x1="1288.1" y1="1694" x2="1284.1" y2="1694"/>
              <line class="cls-2" x1="1234.1" y1="1695" x2="1229.1" y2="1695"/>
              <line class="cls-2" x1="428.1" y1="1784" x2="392.1" y2="1784"/>
              <line class="cls-2" x1="398.1" y1="1784" x2="398.1" y2="1666"/>
              <line class="cls-2" x1="398.1" y1="1715" x2="498.1" y2="1715"/>
              <line class="cls-2" x1="497.1" y1="1715" x2="497.1" y2="1785"/>
              <line class="cls-2" x1="497.1" y1="1784" x2="458.1" y2="1784"/>
              <line class="cls-2" x1="451.1" y1="1715" x2="451.1" y2="1702"/>
              <line class="cls-2" x1="392.1" y1="1666" x2="457.1" y2="1666"/>
              <line class="cls-2" x1="451.1" y1="1547" x2="451.1" y2="1679"/>
              <line class="cls-2" x1="451.1" y1="1601" x2="437.1" y2="1601"/>
              <line class="cls-2" x1="540.1" y1="1547" x2="441.1" y2="1547"/>
              <line class="cls-2" x1="525.1" y1="1547" x2="525.1" y2="1666"/>
              <line class="cls-2" x1="479.1" y1="1666" x2="541.1" y2="1666"/>
              <line class="cls-2" x1="525.1" y1="1601" x2="541.1" y2="1601"/>
              <line class="cls-2" x1="571.1" y1="1666" x2="596.1" y2="1666"/>
              <line class="cls-2" x1="596.1" y1="1666" x2="596.1" y2="1547"/>
              <line class="cls-2" x1="596.1" y1="1601" x2="570.1" y2="1601"/>
              <line class="cls-2" x1="711.1" y1="1547" x2="570.1" y2="1547"/>
              <line class="cls-2" x1="711.1" y1="577" x2="711.1" y2="1570"/>
              <line class="cls-2" x1="711.1" y1="578" x2="850.1" y2="578"/>
              <line class="cls-2" x1="848.1" y1="484" x2="848.1" y2="600"/>
              <line class="cls-2" x1="848.1" y1="486" x2="711.1" y2="486"/>
              <line class="cls-2" x1="712.1" y1="486" x2="712.1" y2="163"/>
              <line class="cls-2" x1="712.1" y1="178" x2="718.1" y2="178"/>
              <line class="cls-2" x1="712.1" y1="427" x2="761.1" y2="427"/>
              <line class="cls-2" x1="848.1" y1="484" x2="848.1" y2="365"/>
              <line class="cls-2" x1="848.1" y1="427" x2="791.1" y2="427"/>
              <line class="cls-2" x1="910.1" y1="440" x2="910.1" y2="394"/>
              <line class="cls-2" x1="910.1" y1="409" x2="924.1" y2="409"/>
              <line class="cls-2" x1="848.1" y1="661" x2="848.1" y2="691"/>
              <line class="cls-2" x1="910.1" y1="470" x2="910.1" y2="580"/>
              <line class="cls-2" x1="910.1" y1="578" x2="1203.1" y2="578"/>
              <line class="cls-2" x1="1393.1" y1="820" x2="1393.1" y2="1558"/>
              <line class="cls-2" x1="1523.1" y1="1558" x2="1376.1" y2="1558"/>
              <line class="cls-2" x1="1513.1" y1="1558" x2="1513.1" y2="1520"/>
              <line class="cls-2" x1="1458.1" y1="1558" x2="1458.1" y2="1537"/>
              <line class="cls-2" x1="1459.1" y1="1509" x2="1337.1" y2="1509"/>
              <line class="cls-2" x1="1458.1" y1="1509" x2="1458.1" y2="1516"/>
              <line class="cls-2" x1="1441.1" y1="1509" x2="1441.1" y2="1505"/>
              <line class="cls-2" x1="1337.1" y1="1558" x2="1337.1" y2="1496"/>
              <line class="cls-2" x1="1356.1" y1="1558" x2="1333.1" y2="1558"/>
              <line class="cls-2" x1="1313.1" y1="1558" x2="1266.1" y2="1558"/>
              <line class="cls-2" x1="1246.1" y1="1558" x2="1215.1" y2="1558"/>
              <line class="cls-2" x1="1246.1" y1="1558" x2="1215.1" y2="1558"/>
              <line class="cls-2" x1="1178.1" y1="1558" x2="1195.1" y2="1558"/>
              <line class="cls-2" x1="1282.1" y1="1497" x2="1112.1" y2="1497"/>
              <line class="cls-2" x1="1178.1" y1="1497" x2="1178.1" y2="1558"/>
              <line class="cls-2" x1="1232.1" y1="1497" x2="1232.1" y2="1558"/>
              <line class="cls-2" x1="1281.1" y1="1497" x2="1281.1" y2="1528"/>
              <line class="cls-2" x1="1253.1" y1="1465" x2="1281.1" y2="1465"/>
              <line class="cls-2" x1="1393.1" y1="1398" x2="1244.1" y2="1398"/>
              <line class="cls-2" x1="1309.1" y1="1465" x2="1309.1" y2="1398"/>
              <line class="cls-2" x1="1314.1" y1="1465" x2="1302.1" y2="1465"/>
              <line class="cls-2" x1="1200.1" y1="1398" x2="1207.1" y2="1398"/>
              <line class="cls-2" x1="1204.1" y1="1398" x2="1204.1" y2="1446"/>
              <line class="cls-2" x1="1204.1" y1="1445" x2="1118.1" y2="1445"/>
              <line class="cls-2" x1="1166.1" y1="1398" x2="1065.1" y2="1398"/>
              <line class="cls-2" x1="1066.1" y1="799" x2="1066" y2="1439"/>
              <line class="cls-2" x1="1066.1" y1="822" x2="1204.1" y2="822"/>
              <line class="cls-2" x1="1203.1" y1="822" x2="1203.1" y2="578"/>
              <line class="cls-2" x1="1143.1" y1="578" x2="1143.1" y2="722"/>
              <line class="cls-2" x1="1143.1" y1="715" x2="1137.1" y2="715"/>
              <line class="cls-2" x1="1066.1" y1="578" x2="1066.1" y2="762"/>
              <line class="cls-2" x1="1066.1" y1="678" x2="1086.1" y2="678"/>
              <line class="cls-2" x1="1066.1" y1="685" x2="1014.1" y2="685"/>
              <line class="cls-2" x1="1016.1" y1="685" x2="1016.1" y2="689"/>
              <line class="cls-2" x1="994.1" y1="578" x2="994.1" y2="685"/>
              <line class="cls-2" x1="998.1" y1="685" x2="986.1" y2="685"/>
              <line class="cls-2" x1="975.1" y1="636" x2="1023.1" y2="636"/>
              <line class="cls-2" x1="910.1" y1="580" x2="910.1" y2="762"/>
              <line class="cls-2" x1="910.1" y1="760" x2="976.1" y2="760"/>
              <line class="cls-2" x1="966.1" y1="760" x2="966.1" y2="732"/>
              <line class="cls-2" x1="910.1" y1="685" x2="971.1" y2="685"/>
              <line class="cls-2" x1="966.1" y1="685" x2="966.1" y2="712"/>
              <line class="cls-2" x1="950.1" y1="685" x2="950.1" y2="673"/>
              <line class="cls-2" x1="910.1" y1="486" x2="1087.1" y2="486"/>
              <line class="cls-2" x1="1085.1" y1="486" x2="1085.1" y2="461"/>
              <line class="cls-2" x1="1085.1" y1="431" x2="1085.1" y2="409"/>
              <line class="cls-2" x1="1060.1" y1="410" x2="1060.1" y2="4"/>
              <line class="cls-2" x1="1060.1" y1="4" x2="712.1" y2="4"/>
              <line class="cls-2" x1="1430.1" y1="758" x2="1459.1" y2="758"/>
              <line class="cls-2" x1="1459.1" y1="759" x2="1459.1" y2="578"/>
              <line class="cls-2" x1="1459.1" y1="642" x2="1467.1" y2="642"/>
              <line class="cls-2" x1="1433.1" y1="578" x2="1520.1" y2="578"/>
              <line class="cls-2" x1="1507.1" y1="578" x2="1507.1" y2="643"/>
              <line class="cls-2" x1="1507.1" y1="642" x2="1493.1" y2="642"/>
              <line class="cls-2" x1="1580.1" y1="833" x2="1568.1" y2="833"/>
              <line class="cls-2" x1="1380.1" y1="578" x2="1380.1" y2="820"/>
              <line class="cls-2" x1="1380.1" y1="758" x2="1404.1" y2="758"/>
              <line class="cls-2" x1="1459.1" y1="706" x2="1517.1" y2="706"/>
              <line class="cls-2" x1="1380.1" y1="820" x2="1474.1" y2="820"/>
              <line class="cls-2" x1="1513.1" y1="1277" x2="1513.1" y2="819"/>
              <line class="cls-2" x1="1513.1" y1="820" x2="1502.1" y2="820"/>
              <line class="cls-2" x1="1772.1" y1="984" x2="1741.1" y2="984"/>
              <line class="cls-2" x1="1757.1" y1="984" x2="1757.1" y2="1048"/>
              <line class="cls-2" x1="1757.1" y1="1047" x2="1692.1" y2="1047"/>
              <line class="cls-2" x1="1680.1" y1="1117" x2="1701.1" y2="1117"/>
              <line class="cls-2" x1="1691.1" y1="1073" x2="1686.1" y2="1073"/>
              <line class="cls-2" x1="1691.1" y1="999" x2="1687.1" y2="999"/>
              <line class="cls-2" x1="1691.1" y1="984" x2="1710.1" y2="984"/>
              <line class="cls-2" x1="1568.1" y1="1183" x2="1568.1" y2="998"/>
              <line class="cls-2" x1="1568.1" y1="999" x2="1658.1" y2="999"/>
              <line class="cls-2" x1="1513.1" y1="1117" x2="1527.1" y2="1117"/>
              <line class="cls-2" x1="1659.1" y1="1117" x2="1556.1" y2="1117"/>
              <line class="cls-2" x1="1624.1" y1="1117" x2="1624.1" y2="1072"/>
              <line class="cls-2" x1="1624.1" y1="1073" x2="1657.1" y2="1073"/>
              <line class="cls-2" x1="1928.1" y1="1117" x2="1732.1" y2="1117"/>
              <line class="cls-2" x1="1928.1" y1="1597" x2="1798.1" y2="1597"/>
              <line class="cls-2" x1="1877.1" y1="1597" x2="1877.1" y2="1575"/>
              <line class="cls-2" x1="1928.1" y1="1544" x2="1876.1" y2="1544"/>
              <line class="cls-2" x1="1877.1" y1="1544" x2="1877.1" y2="1554"/>
              <line class="cls-2" x1="1928.1" y1="1663" x2="1754.1" y2="1663"/>
              <line class="cls-2" x1="1754.1" y1="1663" x2="1754.1" y2="1680"/>
              <line class="cls-2" x1="1484.1" y1="1663" x2="1695.1" y2="1663"/>
              <line class="cls-2" x1="1693.1" y1="1663" x2="1693.1" y2="1680"/>
              <line class="cls-2" x1="1644.1" y1="1663" x2="1644.1" y2="1672"/>
              <line class="cls-2" x1="1602.1" y1="1663" x2="1602.1" y2="1672"/>
              <line class="cls-2" x1="1498.1" y1="1663" x2="1498.1" y2="1694"/>
              <line class="cls-2" x1="1393.1" y1="1477" x2="1513.1" y2="1477"/>
              <line class="cls-2" x1="1513.1" y1="1500" x2="1513.1" y2="1453"/>
              <line class="cls-2" x1="1441.1" y1="1477" x2="1441.1" y2="1485"/>
              <line class="cls-2" x1="1415.1" y1="1479" x2="1415.1" y2="1470"/>
              <line class="cls-2" x1="1393.1" y1="1455" x2="1337.1" y2="1455"/>
              <line class="cls-2" x1="1338.1" y1="1455" x2="1338.1" y2="1476"/>
              <line class="cls-2" x1="1338.1" y1="1465" x2="1334.1" y2="1465"/>
              <line class="cls-2" x1="1393.1" y1="1408" x2="1396.1" y2="1408"/>
              <line class="cls-2" x1="1393.1" y1="1447" x2="1460.1" y2="1447"/>
              <line class="cls-2" x1="1415.1" y1="1408" x2="1415.1" y2="1450"/>
              <line class="cls-2" x1="1411.1" y1="1408" x2="1418.1" y2="1408"/>
              <line class="cls-2" x1="1458.1" y1="1447" x2="1458.1" y2="1332"/>
              <line class="cls-2" x1="1439.1" y1="1334" x2="1477.1" y2="1334"/>
              <line class="cls-2" x1="1458.1" y1="1408" x2="1433.1" y2="1408"/>
              <line class="cls-2" x1="1458.1" y1="1396" x2="1514.1" y2="1396"/>
              <line class="cls-2" x1="1513.1" y1="1308" x2="1513.1" y2="1433"/>
              <line class="cls-2" x1="1513.1" y1="1334" x2="1497.1" y2="1334"/>
              <line class="cls-2" x1="1393.1" y1="1334" x2="1418.1" y2="1334"/>
              <line class="cls-2" x1="1556.1" y1="1558" x2="1628.1" y2="1558"/>
              <line class="cls-2" x1="1563.1" y1="1558" x2="1563.1" y2="1595"/>
              <line class="cls-2" x1="1568.1" y1="1558" x2="1568.1" y2="1234"/>
              <line class="cls-2" x1="1066.1" y1="760" x2="1007.1" y2="760"/>
              <line class="cls-2" x1="1016.1" y1="760" x2="1016.1" y2="751"/>
              <line class="cls-2" x1="1040.1" y1="760" x2="1040.1" y2="751"/>
              <line class="cls-2" x1="1015.1" y1="715" x2="1114.1" y2="715"/>
              <line class="cls-2" x1="1016.1" y1="731" x2="1016.1" y2="708"/>
              <line class="cls-2" x1="1040.1" y1="715" x2="1040.1" y2="731"/>
              <line class="cls-2" x1="1107.1" y1="677" x2="1107.1" y2="733"/>
              <line class="cls-2" x1="1107.1" y1="678" x2="1101.1" y2="678"/>
              <line class="cls-2" x1="1066.1" y1="636" x2="1043.1" y2="636"/>
              <line class="cls-2" x1="910.1" y1="636" x2="955.1" y2="636"/>
              <line class="cls-2" x1="950.1" y1="636" x2="950.1" y2="653"/>
              <line class="cls-2" x1="1085.1" y1="410" x2="953.1" y2="410"/>
              <line class="cls-2" x1="970.1" y1="410" x2="970.1" y2="396"/>
              <line class="cls-2" x1="1059.1" y1="352" x2="909.1" y2="352"/>
              <line class="cls-2" x1="910.1" y1="324" x2="910.1" y2="364"/>
              <line class="cls-2" x1="970.1" y1="352" x2="970.1" y2="366"/>
              <line class="cls-2" x1="1059.1" y1="241" x2="909.1" y2="241"/>
              <line class="cls-2" x1="910.1" y1="188" x2="910.1" y2="294"/>
              <line class="cls-2" x1="1009.1" y1="241" x2="1009.1" y2="102"/>
              <line class="cls-2" x1="1009.1" y1="103" x2="1016.1" y2="103"/>
              <line class="cls-2" x1="1009.1" y1="124" x2="952.1" y2="124"/>
              <line class="cls-2" x1="922.1" y1="124" x2="894.1" y2="124"/>
              <line class="cls-2" x1="910.1" y1="124" x2="910.1" y2="158"/>
              <line class="cls-2" x1="748.1" y1="178" x2="757.1" y2="178"/>
              <line class="cls-2" x1="756.1" y1="178" x2="756.1" y2="124"/>
              <line class="cls-2" x1="864.1" y1="124" x2="747.1" y2="124"/>
              <line class="cls-2" x1="848.1" y1="124" x2="848.1" y2="336"/>
              <line class="cls-2" x1="712.1" y1="4" x2="712.1" y2="133"/>
              <line class="cls-2" x1="712.1" y1="124" x2="717.1" y2="124"/>
              <line class="cls-2" x1="711.1" y1="1314" x2="849.1" y2="1314"/>
              <line class="cls-2" x1="849.1" y1="1109" x2="849.1" y2="1333"/>
              <line class="cls-2" x1="711.1" y1="1068" x2="849.1" y2="1068"/>
              <line class="cls-2" x1="848.1" y1="879" x2="848.1" y2="1079"/>
              <line class="cls-2" x1="711.1" y1="819" x2="850.1" y2="819"/>
              <line class="cls-2" x1="849.1" y1="819" x2="849.1" y2="849"/>
              <line class="cls-2" x1="848.1" y1="740" x2="848.1" y2="770"/>
              <line class="cls-2" x1="1066.1" y1="1115" x2="911.1" y2="1115"/>
              <line class="cls-2" x1="911.1" y1="1131" x2="911.1" y2="1109"/>
              <line class="cls-2" x1="1066.1" y1="1171" x2="910.1" y2="1171"/>
              <line class="cls-2" x1="911.1" y1="1171" x2="911.1" y2="1160"/>
              <line class="cls-2" x1="926.1" y1="1171" x2="926.1" y2="1371"/>
              <line class="cls-2" x1="1066.1" y1="801" x2="910.1" y2="801"/>
              <line class="cls-2" x1="911.1" y1="801" x2="911.1" y2="849"/>
              <line class="cls-2" x1="911.1" y1="879" x2="911.1" y2="1079"/>
              <line class="cls-2" x1="711.1" y1="1569" x2="850.1" y2="1569"/>
              <line class="cls-2" x1="848.1" y1="1569" x2="848.1" y2="1363"/>
              <line class="cls-2" x1="848.1" y1="1547" x2="867.1" y2="1547"/>
              <line class="cls-2" x1="897.1" y1="1547" x2="974.1" y2="1547"/>
              <line class="cls-2" x1="926.1" y1="1547" x2="926.1" y2="1537"/>
              <line class="cls-2" x1="1018.1" y1="1547" x2="1067.1" y2="1547"/>
              <line class="cls-2" x1="1066.1" y1="1547" x2="1066.1" y2="1531"/>
              <line class="cls-2" x1="1081.1" y1="1497" x2="1041.1" y2="1497"/>
              <line class="cls-2" x1="1066.1" y1="1497" x2="1066.1" y2="1469"/>
              <line class="cls-2" x1="1012.1" y1="1497" x2="911.1" y2="1497"/>
              <line class="cls-2" x1="926.1" y1="1401" x2="926.1" y2="1507"/>
              <line class="cls-2" x1="1066.1" y1="1426" x2="911.1" y2="1426"/>
              <line class="cls-2" x1="998.1" y1="1426" x2="998.1" y2="1447"/>
              <line class="cls-2" x1="998.1" y1="1497" x2="998.1" y2="1477"/>
              <line class="cls-2" x1="1777.1" y1="1597" x2="1683.1" y2="1597"/>
              <line class="cls-2" x1="1684.1" y1="1597" x2="1684.1" y2="1557"/>
              <line class="cls-2" x1="1684.1" y1="1561" x2="1725.1" y2="1561"/>
              <line class="cls-2" x1="1684.1" y1="1558" x2="1658.1" y2="1558"/>
              <line class="cls-2" x1="1756.1" y1="1597" x2="1756.1" y2="1561"/>
              <line class="cls-2" x1="1756.1" y1="1561" x2="1746.1" y2="1561"/>
              <line class="cls-2" x1="1644.1" y1="1787" x2="1644.1" y2="1763"/>
              <line class="cls-2" x1="1602.1" y1="1787" x2="1602.1" y2="1773"/>
              <line class="cls-2" x1="648.1" y1="2022" x2="648.1" y2="1898"/>
              <line class="cls-2" x1="648.1" y1="1901" x2="624.1" y2="1901"/>
              <line class="cls-2" x1="598.1" y1="2022" x2="598.1" y2="1901"/>
              <line class="cls-2" x1="584.1" y1="1901" x2="607.1" y2="1901"/>
              <line class="cls-2" x1="549.1" y1="2022" x2="549.1" y2="1901"/>
              <line class="cls-2" x1="519.1" y1="1901" x2="568.1" y2="1901"/>
              <line class="cls-2" x1="495.1" y1="2022" x2="495.1" y2="1896"/>
              <line class="cls-2" x1="483.1" y1="1901" x2="503.1" y2="1901"/>
              <line class="cls-2" x1="429.1" y1="1901" x2="439.1" y2="1901"/>
              <line class="cls-2" x1="429.1" y1="1874" x2="569.1" y2="1874"/>
              <line class="cls-2" x1="496.1" y1="1874" x2="496.1" y2="1879"/>
              <line class="cls-2" x1="568.1" y1="1874" x2="568.1" y2="1870"/>
              <line class="cls-2" x1="356.1" y1="1798" x2="356.1" y2="1547"/>
              <line class="cls-2" x1="356.1" y1="1547" x2="411.1" y2="1547"/>
              <line class="cls-2" x1="399.1" y1="1578" x2="399.1" y2="1601"/>
              <line class="cls-2" x1="385.1" y1="1601" x2="415.1" y2="1601"/>
              <line class="cls-2" x1="356.1" y1="1601" x2="363.1" y2="1601"/>
              <line class="cls-2" x1="356.1" y1="1666" x2="362.1" y2="1666"/>
              <line class="cls-2" x1="356.1" y1="1785" x2="362.1" y2="1785"/>
              <line class="cls-2" x1="1066.1" y1="756" x2="1108.1" y2="756"/>
              <line class="cls-2" x1="1107.1" y1="756" x2="1107.1" y2="749"/>
              <line class="cls-2" x1="1203.1" y1="747" x2="1143.1" y2="747"/>
              <line class="cls-2" x1="1143.1" y1="779" x2="1143.1" y2="741"/>
              <line class="cls-2" x1="1498.1" y1="1787" x2="1498.1" y2="1751"/>
              <line class="cls-2" x1="1445.1" y1="1787" x2="1445.1" y2="1751"/>
              <line class="cls-2" x1="1445.1" y1="1714" x2="1445.1" y2="1731"/>
              <line class="cls-2" x1="1600.1" y1="810" x2="1657.1" y2="810"/>
              <line class="cls-2" x1="1656.1" y1="807" x2="1656.1" y2="813"/>
              <line class="cls-2" x1="1627.1" y1="788" x2="1627.1" y2="791"/>
              <line class="cls-2" x1="1459.1" y1="664" x2="1446.1" y2="664"/>
              <line class="cls-2" x1="1445.1" y1="1663" x2="1445.1" y2="1694"/>
              <line class="cls-2" x1="1253.1" y1="1398" x2="1253.1" y2="1497"/>
              <line class="cls-2" x1="1770.1" y1="946" x2="1770.1" y2="926"/>
              <line class="cls-2" x1="1808.1" y1="1011" x2="1808.1" y2="980"/>
              <line class="cls-2" x1="1691.1" y1="1117" x2="1691.1" y2="983"/>
              <line class="cls-2" x1="1143.1" y1="822" x2="1143.1" y2="799"/>
              <line class="cls-2" x1="1060.1" y1="103" x2="1046.1" y2="103"/>
            </g>
            <g>
              <line class="cls-2" x1="132.1" y1="2022" x2="132.1" y2="1841"/>
              <line class="cls-2" x1="190.1" y1="1848" x2="132.1" y2="1848.6"/>
              <line class="cls-2" x1="179.1" y1="1848" x2="179.1" y2="2022"/>
              <line class="cls-2" x1="179.1" y1="1877" x2="234.1" y2="1877.6"/>
              <line class="cls-2" x1="238.1" y1="1848" x2="220.1" y2="1848"/>
              <line class="cls-2" x1="233.1" y1="1848" x2="232.9" y2="1878"/>
              <line class="cls-2" x1="218.1" y1="2022" x2="300.1" y2="2022"/>
              <line class="cls-2" x1="230.1" y1="2022" x2="229.9" y2="1965"/>
              <line class="cls-2" x1="235.1" y1="1965" x2="230.1" y2="1965"/>
              <line class="cls-2" x1="269.1" y1="2022" x2="268.6" y2="1848"/>
              <line class="cls-2" x1="263.1" y1="1848" x2="303.1" y2="1848"/>
              <line class="cls-2" x1="269.1" y1="1965" x2="263.1" y2="1965"/>
              <line class="cls-2" x1="328.1" y1="2022" x2="358.1" y2="2022"/>
              <line class="cls-2" x1="330.1" y1="1848" x2="358.1" y2="1848"/>
              <line class="cls-2" x1="356.1" y1="1832" x2="356.6" y2="2022"/>
              <line class="cls-2" x1="356.1" y1="915" x2="356.3" y2="1803"/>
              <line class="cls-2" x1="356.1" y1="1786" x2="350.1" y2="1785.9"/>
              <line class="cls-2" x1="329.1" y1="1786" x2="300.1" y2="1786"/>
              <line class="cls-2" x1="324.1" y1="1786" x2="324.3" y2="1743"/>
              <line class="cls-2" x1="227.1" y1="1744" x2="324.1" y2="1744"/>
              <line class="cls-2" x1="276.1" y1="1739" x2="276.3" y2="1788"/>
              <line class="cls-2" x1="281.1" y1="1786" x2="274.1" y2="1786"/>
              <line class="cls-2" x1="255.1" y1="1786" x2="227.1" y2="1786"/>
              <line class="cls-2" x1="228.1" y1="1788" x2="228.1" y2="1656"/>
              <line class="cls-2" x1="242.1" y1="1672" x2="195.1" y2="1672"/>
              <line class="cls-2" x1="356.1" y1="1672" x2="269.1" y2="1672"/>
              <line class="cls-2" x1="324.1" y1="1672" x2="324.1" y2="1658"/>
              <line class="cls-2" x1="276.1" y1="1672" x2="276.1" y2="1704"/>
              <line class="cls-2" x1="276.1" y1="1700" x2="228.1" y2="1700"/>
              <line class="cls-2" x1="228.1" y1="1722" x2="277.1" y2="1722"/>
              <line class="cls-2" x1="276.1" y1="1718" x2="276.1" y2="1726"/>
              <line class="cls-2" x1="356.1" y1="1624" x2="318.1" y2="1624"/>
              <line class="cls-2" x1="324.1" y1="1624" x2="324.1" y2="1639"/>
              <line class="cls-2" x1="356.4" y1="1584.9" x2="352.3" y2="1585.4"/>
              <line class="cls-2" x1="356.1" y1="1510" x2="294.1" y2="1510"/>
              <line class="cls-2" x1="295.1" y1="1510" x2="295.1" y2="1626"/>
              <line class="cls-2" x1="295.1" y1="1624" x2="299.1" y2="1624"/>
              <line class="cls-2" x1="295.1" y1="1611" x2="227.1" y2="1611"/>
              <line class="cls-2" x1="229.1" y1="1423" x2="229.1" y2="1628"/>
              <line class="cls-2" x1="229.1" y1="1566" x2="243.1" y2="1566"/>
              <line class="cls-2" x1="229.1" y1="1484" x2="356.1" y2="1484"/>
              <line class="cls-2" x1="317.1" y1="1484" x2="317.1" y2="1431"/>
              <line class="cls-2" x1="322.1" y1="1432" x2="309.1" y2="1432"/>
              <line class="cls-2" x1="275.1" y1="1484" x2="275.1" y2="1431"/>
              <line class="cls-2" x1="282.1" y1="1433" x2="265.1" y2="1433"/>
              <line class="cls-2" x1="324.1" y1="1585" x2="295.1" y2="1585"/>
              <line class="cls-2" x1="270.1" y1="1566" x2="296.1" y2="1566"/>
              <line class="cls-2" x1="349.1" y1="1433" x2="356.1" y2="1433"/>
              <line class="cls-2" x1="4.1" y1="594" x2="4.1" y2="2024"/>
              <line class="cls-2" x1="4.1" y1="2022" x2="191.1" y2="2022"/>
              <line class="cls-2" x1="4.1" y1="1753" x2="134.1" y2="1753"/>
              <line class="cls-2" x1="133.1" y1="1753" x2="133.1" y2="1813"/>
              <line class="cls-2" x1="4.1" y1="1672" x2="168.1" y2="1672"/>
              <line class="cls-2" x1="133.1" y1="1672" x2="133.1" y2="1479"/>
              <line class="cls-2" x1="4.1" y1="1426" x2="134.1" y2="1426"/>
              <line class="cls-2" x1="133.1" y1="1243" x2="133.1" y2="1452"/>
              <line class="cls-2" x1="4.1" y1="1185" x2="134.1" y2="1185"/>
              <line class="cls-2" x1="133.1" y1="1062" x2="133.1" y2="1216"/>
              <line class="cls-2" x1="4.1" y1="932" x2="134.1" y2="932"/>
              <line class="cls-2" x1="132.1" y1="932" x2="132.1" y2="1035"/>
              <line class="cls-2" x1="4.1" y1="846" x2="134.1" y2="846"/>
              <line class="cls-2" x1="132.1" y1="846" x2="132.1" y2="819"/>
              <line class="cls-2" x1="4.1" y1="596" x2="222.1" y2="596"/>
              <line class="cls-2" x1="133.1" y1="596" x2="133.1" y2="792"/>
              <line class="cls-2" x1="133.1" y1="790" x2="209.1" y2="790"/>
              <line class="cls-2" x1="244.1" y1="596" x2="359.1" y2="596"/>
              <line class="cls-2" x1="267.1" y1="596" x2="267.1" y2="792"/>
              <line class="cls-2" x1="304.1" y1="790" x2="236.1" y2="790"/>
              <line class="cls-2" x1="381.1" y1="596" x2="427.1" y2="596"/>
              <line class="cls-2" x1="402.1" y1="596" x2="402.1" y2="792"/>
              <line class="cls-2" x1="403.1" y1="790" x2="331.1" y2="790"/>
              <line class="cls-2" x1="366.1" y1="790" x2="366.1" y2="797"/>
              <line class="cls-2" x1="449.1" y1="596" x2="549.1" y2="596"/>
              <line class="cls-2" x1="547.1" y1="594" x2="547.1" y2="831"/>
              <line class="cls-2" x1="229.1" y1="830" x2="229.1" y2="863"/>
              <line class="cls-2" x1="229.1" y1="890" x2="229.1" y2="930"/>
              <line class="cls-2" x1="229.1" y1="915" x2="236.1" y2="915"/>
              <line class="cls-2" x1="356.1" y1="916" x2="356.1" y2="913"/>
              <line class="cls-2" x1="402.1" y1="889" x2="402.1" y2="918"/>
              <line class="cls-2" x1="404.1" y1="915" x2="262.1" y2="915"/>
              <line class="cls-2" x1="283.1" y1="915" x2="283.1" y2="929"/>
              <line class="cls-2" x1="356.1" y1="967" x2="227.1" y2="967"/>
              <line class="cls-2" x1="229.1" y1="957" x2="229.1" y2="976"/>
              <line class="cls-2" x1="283.1" y1="967" x2="283.1" y2="956"/>
              <line class="cls-2" x1="356.1" y1="1017" x2="227.1" y2="1017"/>
              <line class="cls-2" x1="229.1" y1="1003" x2="229.1" y2="1041"/>
              <line class="cls-2" x1="229.1" y1="831" x2="549.1" y2="831"/>
              <line class="cls-2" x1="402.1" y1="831" x2="402.1" y2="862"/>
              <line class="cls-2" x1="356.1" y1="1134" x2="227.1" y2="1134"/>
              <line class="cls-2" x1="229.1" y1="1068" x2="229.1" y2="1147"/>
              <line class="cls-2" x1="356.1" y1="1185" x2="227.1" y2="1185"/>
              <line class="cls-2" x1="229.1" y1="1174" x2="229.1" y2="1248"/>
              <line class="cls-2" x1="276.1" y1="1185" x2="276.1" y2="1237"/>
              <line class="cls-2" x1="283.1" y1="1235" x2="266.1" y2="1235"/>
              <line class="cls-2" x1="318.1" y1="1185" x2="318.1" y2="1237"/>
              <line class="cls-2" x1="324.1" y1="1235" x2="310.1" y2="1235"/>
              <line class="cls-2" x1="356.1" y1="1235" x2="351.1" y2="1235"/>
              <line class="cls-2" x1="356.1" y1="1285" x2="351.1" y2="1285"/>
              <line class="cls-2" x1="356.1" y1="1335" x2="227.1" y2="1335"/>
              <line class="cls-2" x1="229.1" y1="1335" x2="229.1" y2="1275"/>
              <line class="cls-2" x1="229.1" y1="1285" x2="239.1" y2="1285"/>
              <line class="cls-2" x1="229.1" y1="1335" x2="229.1" y2="1395"/>
              <line class="cls-2" x1="229.1" y1="1385" x2="239.1" y2="1385"/>
              <line class="cls-2" x1="276.1" y1="1335" x2="276.1" y2="1386"/>
              <line class="cls-2" x1="266.1" y1="1385" x2="283.1" y2="1385"/>
              <line class="cls-2" x1="318.1" y1="1335" x2="318.1" y2="1386"/>
              <line class="cls-2" x1="310.1" y1="1385" x2="324.1" y2="1385"/>
              <line class="cls-2" x1="356.1" y1="1385" x2="351.1" y2="1385"/>
              <line class="cls-2" x1="318.1" y1="1335" x2="318.1" y2="1283"/>
              <line class="cls-2" x1="310.1" y1="1285" x2="324.1" y2="1285"/>
              <line class="cls-2" x1="276.1" y1="1335" x2="276.1" y2="1283"/>
              <line class="cls-2" x1="266.1" y1="1285" x2="283.1" y2="1285"/>
              <line class="cls-2" x1="366.1" y1="831" x2="366.1" y2="824"/>
            </g>
            <g>
              <g>
                <line class="cls-2" x1="1352.1" y1="93" x2="1352.1" y2="334"/>
                <line class="cls-2" x1="1352.1" y1="334" x2="1419.1" y2="334"/>
                <line class="cls-2" x1="1412.1" y1="334" x2="1412.1" y2="498"/>
                <line class="cls-2" x1="1552.1" y1="497" x2="1723.1" y2="497"/>
                <line class="cls-2" x1="1722.1" y1="497" x2="1722.1" y2="367"/>
                <line class="cls-2" x1="1722.1" y1="404" x2="1869.1" y2="404"/>
                <line class="cls-2" x1="1869.1" y1="404" x2="1869.1" y2="367"/>
                <line class="cls-2" x1="1552.1" y1="333" x2="1869.1" y2="333"/>
                <line class="cls-2" x1="1721.1" y1="333" x2="1721.1" y2="344"/>
                <line class="cls-2" x1="1670.1" y1="333" x2="1670.1" y2="344"/>
                <line class="cls-2" x1="1569.1" y1="333" x2="1569.1" y2="344"/>
                <line class="cls-2" x1="1529.1" y1="333" x2="1495.1" y2="333"/>
                <line class="cls-2" x1="1507.1" y1="333" x2="1507.1" y2="464"/>
                <line class="cls-2" x1="1507.1" y1="444" x2="1501.1" y2="444"/>
                <line class="cls-2" x1="1507.1" y1="402" x2="1412.1" y2="402"/>
                <line class="cls-2" x1="1463.1" y1="333" x2="1463.1" y2="424"/>
                <line class="cls-2" x1="1473.1" y1="333" x2="1442.1" y2="333"/>
                <line class="cls-2" x1="1483.1" y1="402" x2="1483.1" y2="444"/>
                <line class="cls-2" x1="1487.1" y1="444" x2="1463.1" y2="444"/>
                <line class="cls-2" x1="1463.1" y1="444" x2="1463.1" y2="439"/>
                <line class="cls-2" x1="1507.1" y1="497" x2="1507.1" y2="487"/>
                <line class="cls-2" x1="1569.1" y1="497" x2="1569.1" y2="487"/>
                <line class="cls-2" x1="1670.1" y1="497" x2="1670.1" y2="417"/>
                <line class="cls-2" x1="1670.1" y1="427" x2="1569.1" y2="427"/>
                <line class="cls-2" x1="1569.1" y1="367" x2="1569.1" y2="464"/>
                <line class="cls-2" x1="1569.1" y1="375" x2="1587.1" y2="375"/>
                <line class="cls-2" x1="1647.1" y1="427" x2="1647.1" y2="423"/>
                <line class="cls-2" x1="1629.1" y1="427" x2="1629.1" y2="375"/>
                <line class="cls-2" x1="1629.1" y1="399" x2="1670.1" y2="399"/>
                <line class="cls-2" x1="1647.1" y1="389" x2="1647.1" y2="413"/>
                <line class="cls-2" x1="1670.1" y1="393" x2="1670.1" y2="402"/>
                <line class="cls-2" x1="1610.1" y1="375" x2="1686.1" y2="375"/>
                <line class="cls-2" x1="1670.1" y1="379" x2="1670.1" y2="367"/>
                <line class="cls-2" x1="1647.1" y1="375" x2="1647.1" y2="379"/>
                <line class="cls-2" x1="1722.1" y1="375" x2="1709.1" y2="375"/>
                <line class="cls-2" x1="1869.1" y1="344" x2="1869.1" y2="93"/>
                <line class="cls-2" x1="1869.1" y1="93" x2="1352.1" y2="93"/>
                <line class="cls-2" x1="1412.1" y1="498" x2="1522.1" y2="497"/>
              </g>
              <line class="cls-2" x1="1507.1" y1="496" x2="1506.4" y2="578"/>
              <g>
                <polygon class="cls-3" points="725.1 1911 725.1 1847 723.1 1847 723.1 1844 619.1 1844 619.1 1850 719.1 1850 719.1 1875 648.1 1875 648.1 1877 645.1 1877 645.1 1881 648.1 1881 651.1 1881 719.1 1881 719.1 1911 725.1 1911"/>
                <polygon class="cls-3" points="780.1 1898 777.1 1898 777.1 2019 725.1 2019 725.1 1934 719.1 1934 719.1 2019 651.1 2019 651.1 1898 648.1 1898 645.1 1898 624.1 1898 624.1 1904 645.1 1904 645.1 2019 601.1 2019 601.1 1904 607.1 1904 607.1 1898 584.1 1898 584.1 1904 595.1 1904 595.1 2019 552.1 2019 552.1 1904 568.1 1904 568.1 1898 519.1 1898 519.1 1904 546.1 1904 546.1 2019 498.1 2019 498.1 1904 503.1 1904 503.1 1898 498.1 1898 498.1 1896 492.1 1896 492.1 1898 483.1 1898 483.1 1904 492.1 1904 492.1 2019 432.1 2019 432.1 1904 439.1 1904 439.1 1898 432.1 1898 432.1 1877 493.1 1877 493.1 1879 499.1 1879 499.1 1877 569.1 1877 569.1 1874 571.1 1874 571.1 1870 565.1 1870 565.1 1871 432.1 1871 432.1 1850 497.1 1850 497.1 1847 500.1 1847 500.1 1843 565.1 1843 565.1 1854 571.1 1854 571.1 1850 589.1 1850 589.1 1844 571.1 1844 571.1 1840 568.1 1840 568.1 1837 497.1 1837 497.1 1840 494.1 1840 494.1 1844 407.1 1844 407.1 1850 426.1 1850 426.1 2019 407.1 2019 407.1 2025 797.1 2025 797.1 2019 783.1 2019 783.1 1967 797.1 1967 797.1 1961 783.1 1961 783.1 1902 797.1 1902 797.1 1896 780.1 1896 780.1 1898"/>
                <polygon class="cls-3" points="886.1 1902 897.1 1902 897.1 2019 844.1 2019 844.1 1902 856.1 1902 856.1 1896 820.1 1896 820.1 1902 838.1 1902 838.1 1962 822.1 1962 822.1 1968 838.1 1968 838.1 2019 820.1 2019 820.1 2025 920.1 2025 920.1 2019 903.1 2019 903.1 1967 920.1 1967 920.1 1961 903.1 1961 903.1 1902 920.1 1902 920.1 1896 886.1 1896 886.1 1902"/>
                <polygon class="cls-3" points="1925.1 1745 1784.1 1745 1784.1 1751 1925.1 1751 1925.1 1793 1815.1 1793 1815.1 1790 1809.1 1790 1809.1 1793 1757.1 1793 1757.1 1790 1751.1 1790 1751.1 1796 1754.1 1796 1754.1 1799 1925.1 1799 1925.1 1875 1681.1 1875 1681.1 1881 1925.1 1881 1925.1 2019 1621.1 2019 1621.1 1881 1651.1 1881 1651.1 1875 1441.1 1875 1441.1 1881 1615.1 1881 1615.1 2019 1389.1 2019 1389.1 1881 1412.1 1881 1412.1 1875 1186.1 1875 1186.1 1881 1383.1 1881 1383.1 2019 1146.1 2019 1146.1 1881 1156.1 1881 1156.1 1875 1123.1 1875 1123.1 1881 1140.1 1881 1140.1 2019 1070.1 2019 1070.1 1881 1093.1 1881 1093.1 1875 1070.1 1875 1070.1 1847 1064.1 1847 1064.1 2019 965.1 2019 965.1 1898 962.1 1898 962.1 1896 943.1 1896 943.1 1902 959.1 1902 959.1 1962 943.1 1962 943.1 1968 959.1 1968 959.1 2019 943.1 2019 943.1 2025 1928.1 2025 1928.1 2022 1931.1 2022 1931.1 1722 1925.1 1722 1925.1 1745"/>
                <polygon class="cls-3" points="1751.1 1710 1751.1 1722 1736.1 1722 1736.1 1728 1751.1 1728 1751.1 1761 1757.1 1761 1757.1 1752 1764.1 1752 1764.1 1746 1757.1 1746 1757.1 1710 1751.1 1710"/>
                <polygon class="cls-3" points="1696.1 1728 1709.1 1728 1709.1 1722 1696.1 1722 1696.1 1700 1690.1 1700 1690.1 1753 1696.1 1753 1696.1 1728"/>
                <polygon class="cls-3" points="1070.1 1790 1694.1 1790 1694.1 1787 1696.1 1787 1696.1 1774 1690.1 1774 1690.1 1784 1647.1 1784 1647.1 1763 1641.1 1763 1641.1 1784 1605.1 1784 1605.1 1773 1599.1 1773 1599.1 1784 1566.1 1784 1566.1 1722 1599.1 1722 1599.1 1753 1605.1 1753 1605.1 1722 1641.1 1722 1641.1 1743 1647.1 1743 1647.1 1692 1641.1 1692 1641.1 1716 1605.1 1716 1605.1 1692 1599.1 1692 1599.1 1716 1566.1 1716 1566.1 1666 1599.1 1666 1599.1 1672 1605.1 1672 1605.1 1666 1641.1 1666 1641.1 1672 1647.1 1672 1647.1 1666 1690.1 1666 1690.1 1680 1696.1 1680 1696.1 1663 1695.1 1663 1695.1 1660 1566.1 1660 1566.1 1625 1560.1 1625 1560.1 1660 1484.1 1660 1484.1 1666 1495.1 1666 1495.1 1694 1501.1 1694 1501.1 1666 1560.1 1666 1560.1 1722 1501.1 1722 1501.1 1714 1495.1 1714 1495.1 1731 1501.1 1731 1501.1 1728 1560.1 1728 1560.1 1784 1501.1 1784 1501.1 1751 1495.1 1751 1495.1 1784 1448.1 1784 1448.1 1751 1442.1 1751 1442.1 1784 1394.1 1784 1394.1 1727 1442.1 1727 1442.1 1731 1448.1 1731 1448.1 1714 1442.1 1714 1442.1 1721 1394.1 1721 1394.1 1666 1442.1 1666 1442.1 1694 1448.1 1694 1448.1 1666 1454.1 1666 1454.1 1660 1330.1 1660 1330.1 1666 1337.1 1666 1337.1 1694 1343.1 1694 1343.1 1666 1388.1 1666 1388.1 1721 1343.1 1721 1343.1 1714 1337.1 1714 1337.1 1731 1343.1 1731 1343.1 1727 1388.1 1727 1388.1 1784 1343.1 1784 1343.1 1751 1337.1 1751 1337.1 1784 1291.1 1784 1291.1 1751 1285.1 1751 1285.1 1784 1237.1 1784 1237.1 1728 1285.1 1728 1285.1 1731 1291.1 1731 1291.1 1714 1285.1 1714 1285.1 1722 1237.1 1722 1237.1 1666 1285.1 1666 1285.1 1691 1284.1 1691 1284.1 1697 1288.1 1697 1288.1 1695 1291.1 1695 1291.1 1666 1300.1 1666 1300.1 1660 1167.1 1660 1167.1 1666 1179.1 1666 1179.1 1694 1185.1 1694 1185.1 1666 1231.1 1666 1231.1 1692 1229.1 1692 1229.1 1698 1231.1 1698 1231.1 1722 1185.1 1722 1185.1 1714 1179.1 1714 1179.1 1731 1185.1 1731 1185.1 1728 1231.1 1728 1231.1 1784 1185.1 1784 1185.1 1751 1179.1 1751 1179.1 1784 1132.1 1784 1132.1 1751 1126.1 1751 1126.1 1784 1070.1 1784 1070.1 1728 1126.1 1728 1126.1 1731 1132.1 1731 1132.1 1714 1126.1 1714 1126.1 1722 1070.1 1722 1070.1 1666 1126.1 1666 1126.1 1694 1132.1 1694 1132.1 1666 1137.1 1666 1137.1 1660 1067.1 1660 1067.1 1661 1064.1 1661 1064.1 1817 1070.1 1817 1070.1 1790"/>
                <polygon class="cls-3" points="1928.1 577 1928.1 575 1792.1 575 1792.1 581 1872.1 581 1872.1 610 1878.1 610 1878.1 581 1925.1 581 1925.1 649 1907.1 649 1907.1 651 1905.1 651 1905.1 663 1911.1 663 1911.1 655 1925.1 655 1925.1 754 1878.1 754 1878.1 736 1872.1 736 1872.1 754 1871.1 754 1871.1 760 1925.1 760 1925.1 812 1854.1 812 1854.1 760 1857.1 760 1857.1 754 1808.1 754 1808.1 757 1806.1 757 1806.1 778 1812.1 778 1812.1 760 1848.1 760 1848.1 812 1812.1 812 1812.1 799 1806.1 799 1806.1 836 1812.1 836 1812.1 818 1925.1 818 1925.1 876 1812.1 876 1812.1 866 1806.1 866 1806.1 893 1812.1 893 1812.1 882 1925.1 882 1925.1 938 1812.1 938 1812.1 924 1806.1 924 1806.1 953 1812.1 953 1812.1 944 1925.1 944 1925.1 1007 1811.1 1007 1811.1 980 1805.1 980 1805.1 981 1803.1 981 1803.1 987 1805.1 987 1805.1 1011 1808.1 1011 1808.1 1013 1925.1 1013 1925.1 1114 1732.1 1114 1732.1 1120 1925.1 1120 1925.1 1541 1876.1 1541 1876.1 1544 1874.1 1544 1874.1 1554 1880.1 1554 1880.1 1547 1925.1 1547 1925.1 1594 1880.1 1594 1880.1 1575 1874.1 1575 1874.1 1594 1798.1 1594 1798.1 1600 1925.1 1600 1925.1 1660 1754.1 1660 1754.1 1663 1751.1 1663 1751.1 1680 1757.1 1680 1757.1 1666 1925.1 1666 1925.1 1682 1931.1 1682 1931.1 577 1928.1 577"/>
                <polygon class="cls-3" points="1772.1 575 1621.1 575 1621.1 581 1640.1 581 1640.1 583 1646.1 583 1646.1 581 1688.1 581 1688.1 641 1646.1 641 1646.1 604 1640.1 604 1640.1 650 1646.1 650 1646.1 647 1688.1 647 1688.1 701.1 1646.1 701 1646.1 671 1640.1 671 1640.1 704 1641.1 704 1641.1 706.8 1688.1 706.9 1688.1 711 1694.1 711 1694.1 706.9 1720.1 707 1720.1 701.2 1694.1 701.1 1694.1 652 1754.1 652 1754.1 701 1740.1 701 1740.1 707 1772.1 707 1772.1 701 1760.1 701 1760.1 649 1758.1 649 1758.1 646 1694.1 646 1694.1 581 1772.1 581 1772.1 575"/>
                <polygon class="cls-3" points="1772.1 626 1772.1 620 1759.1 620 1759.1 611 1753.1 611 1753.1 624 1756.1 624 1756.1 626 1772.1 626"/>
                <polygon class="cls-3" points="1806.1 686 1806.1 701 1792.1 701 1792.1 707 1829.1 707 1829.1 701 1812.1 701 1812.1 686 1806.1 686"/>
                <polygon class="cls-3" points="1872.1 630 1872.1 656 1811.1 656 1811.1 649 1805.1 649 1805.1 665 1811.1 665 1811.1 662 1872.1 662 1872.1 701 1850.1 701 1850.1 707 1872.1 707 1872.1 716 1878.1 716 1878.1 666 1887.1 666 1887.1 660 1878.1 660 1878.1 630 1872.1 630"/>
                <polygon class="cls-3" points="1773.1 847 1773.1 742 1770.1 742 1770.1 739 1764.1 739 1764.1 745 1767.1 745 1767.1 837 1694.1 837 1694.1 745 1743.1 745 1743.1 739 1694.1 739 1694.1 738 1688.1 738 1688.1 837 1688.1 943 1685.1 943 1685.1 949 1699.1 949 1699.1 943 1694.1 943 1694.1 895 1730.1 895 1730.1 943 1723.1 943 1723.1 949 1771.1 949 1771.1 946 1773.1 946 1773.1 926 1767.1 926 1767.1 943 1736.1 943 1736.1 895 1767.1 895 1767.1 902 1773.1 902 1773.1 867 1767.1 867 1767.1 889 1694.1 889 1694.1 843 1767.1 843 1767.1 847 1773.1 847"/>
                <polygon class="cls-3" points="1806.1 620 1792.1 620 1792.1 626 1806.1 626 1806.1 628 1812.1 628 1812.1 608 1806.1 608 1806.1 620"/>
                <polygon class="cls-3" points="1565.1 735 1565.1 973 1568.1 973 1568.1 974 1657.1 974 1657.1 971 1659.1 971 1659.1 948 1661.1 948 1661.1 942 1659.1 942 1659.1 935 1653.1 935 1653.1 968 1571.1 968 1571.1 918 1653.1 918 1653.1 919 1659.1 919 1659.1 891 1653.1 891 1653.1 912 1571.1 912 1571.1 836 1580.1 836 1580.1 830 1571.1 830 1571.1 791 1597.1 791 1597.1 830 1596.1 830 1596.1 836 1597.1 836 1597.1 860 1600.1 860 1600.1 863 1610.1 863 1610.1 857 1603.1 857 1603.1 836 1653.1 836 1653.1 857 1626.1 857 1626.1 863 1653.1 863 1653.1 874 1659.1 874 1659.1 829 1653.1 829 1653.1 830 1603.1 830 1603.1 813 1653.1 813 1657.1 813 1659.1 813 1659.1 807 1657.1 807 1653.1 807 1603.1 807 1603.1 791 1624.1 791 1630.1 791 1657.1 791 1657.1 788 1659.1 788 1659.1 776 1653.1 776 1653.1 785 1603.1 785 1603.1 764 1597.1 764 1597.1 785 1571.1 785 1571.1 744 1597.1 744 1597.1 748 1603.1 748 1603.1 744 1653.1 744 1653.1 760 1659.1 760 1659.1 741 1657.1 741 1657.1 738 1619.1 738 1619.1 657 1613.1 657 1613.1 738 1571.1 738 1571.1 735 1565.1 735"/>
                <polygon class="cls-3" points="428.1 1781 401.1 1781 401.1 1718 494.1 1718 494.1 1781 458.1 1781 458.1 1787 497.1 1787 497.1 1785 500.1 1785 500.1 1715 498.1 1715 498.1 1712 454.1 1712 454.1 1702 448.1 1702 448.1 1712 401.1 1712 401.1 1669 448.1 1669 448.1 1679 454.1 1679 454.1 1669 457.1 1669 457.1 1663 454.1 1663 454.1 1550 522.1 1550 522.1 1663 479.1 1663 479.1 1669 541.1 1669 541.1 1663 528.1 1663 528.1 1604 541.1 1604 541.1 1598 528.1 1598 528.1 1550 540.1 1550 540.1 1544 441.1 1544 441.1 1550 448.1 1550 448.1 1598 437.1 1598 437.1 1604 448.1 1604 448.1 1663 392.1 1663 392.1 1669 395.1 1669 395.1 1781 392.1 1781 392.1 1787 428.1 1787 428.1 1781"/>
                <polygon class="cls-3" points="593.1 1663 571.1 1663 571.1 1669 596.1 1669 596.1 1666 599.1 1666 599.1 1550 708.1 1550 708.1 1570 711.1 1570 711.1 1572 850.1 1572 850.1 1569 851.1 1569 851.1 1550 867.1 1550 867.1 1544 851.1 1544 851.1 1363 845.1 1363 845.1 1566 714.1 1566 714.1 1317 846.1 1317 846.1 1333 852.1 1333 852.1 1109 846.1 1109 846.1 1311 714.1 1311 714.1 1071 845.1 1071 845.1 1079 851.1 1079 851.1 879 845.1 879 845.1 1065 714.1 1065 714.1 822 846.1 822 846.1 849 852.1 849 852.1 819 850.1 819 850.1 816 714.1 816 714.1 581 845.1 581 845.1 600 851.1 600 851.1 484 851.1 365 845.1 365 845.1 424 791.1 424 791.1 430 845.1 430 845.1 483 715.1 483 715.1 430 761.1 430 761.1 424 715.1 424 715.1 181 718.1 181 718.1 175 715.1 175 715.1 163 709.1 163 709.1 486 711.1 486 711.1 489 845.1 489 845.1 575 711.1 575 711.1 577 708.1 577 708.1 1544 570.1 1544 570.1 1550 593.1 1550 593.1 1598 570.1 1598 570.1 1604 593.1 1604 593.1 1663"/>
                <polygon class="cls-3" points="907.1 394 907.1 440 913.1 440 913.1 412 924.1 412 924.1 406 913.1 406 913.1 394 907.1 394"/>
                <rect class="cls-3" x="845.1" y="661" width="6" height="30"/>
                <polygon class="cls-3" points="913.1 575 913.1 489 1087.1 489 1087.1 486 1088.1 486 1088.1 461 1082.1 461 1082.1 483 913.1 483 913.1 470 907.1 470 907.1 580 907.1 762 910.1 762 910.1 763 976.1 763 976.1 757 969.1 757 969.1 732 963.1 732 963.1 757 913.1 757 913.1 688 963.1 688 963.1 712 969.1 712 969.1 688 971.1 688 971.1 682 953.1 682 953.1 673 947.1 673 947.1 682 913.1 682 913.1 639 947.1 639 947.1 653 953.1 653 953.1 639 955.1 639 955.1 633 913.1 633 913.1 581 991.1 581 991.1 633 975.1 633 975.1 639 991.1 639 991.1 682 986.1 682 986.1 688 998.1 688 998.1 682 997.1 682 997.1 639 1023.1 639 1023.1 633 997.1 633 997.1 581 1063.1 581 1063.1 633 1043.1 633 1043.1 639 1063.1 639 1063.1 682 1014.1 682 1014.1 685 1013.1 685 1013.1 689 1019.1 689 1019.1 688 1063.1 688 1063.1 712 1019.1 712 1019.1 708 1013.1 708 1013.1 731 1019.1 731 1019.1 718 1037.1 718 1037.1 731 1043.1 731 1043.1 718 1063.1 718 1063.1 757 1043.1 757 1043.1 751 1037.1 751 1037.1 757 1019.1 757 1019.1 751 1013.1 751 1013.1 757 1007.1 757 1007.1 763 1066.1 763 1066.1 762 1069.1 762 1069.1 759 1108.1 759 1108.1 756 1110.1 756 1110.1 749 1104.1 749 1104.1 753 1069.1 753 1069.1 718 1104.1 718 1104.1 733 1110.1 733 1110.1 718 1114.1 718 1114.1 712 1110.1 712 1110.1 677 1107.1 677 1107.1 675 1101.1 675 1101.1 681 1104.1 681 1104.1 712 1069.1 712 1069.1 681 1086.1 681 1086.1 675 1069.1 675 1069.1 581 1140.1 581 1140.1 712 1137.1 712 1137.1 718 1140.1 718 1140.1 722 1146.1 722 1146.1 581 1200.1 581 1200.1 744 1146.1 744 1146.1 741 1140.1 741 1140.1 779 1146.1 779 1146.1 750 1200.1 750 1200.1 819 1146.1 819 1146.1 799 1140.1 799 1140.1 819 1069.1 819 1069.1 799 1066.1 799 1066.1 798 910.1 798 910.1 801 908.1 801 908.1 849 914.1 849 914.1 804 1063.2 804 1063.2 1112 914.1 1112 914.1 1109 908.1 1109 908.1 1131 914.1 1131 914.1 1118 1063.1 1118 1063.1 1168 914.1 1168 914.1 1160 908.1 1160 908.1 1171 910.1 1171 910.1 1174 923.1 1174 923.1 1371 929.1 1371 929.1 1174 1063.1 1174 1063.1 1423 929.1 1423 929.1 1401 923.1 1401 923.1 1423 911.1 1423 911.1 1429 923.1 1429 923.1 1494 911.1 1494 911.1 1500 923.1 1500 923.1 1507 929.1 1507 929.1 1500 1012.1 1500 1012.1 1494 1001.1 1494 1001.1 1477 995.1 1477 995.1 1494 929.1 1494 929.1 1429 995.1 1429 995.1 1447 1001.1 1447 1001.1 1429 1063.1 1429 1063.1 1439 1069 1439 1069 1401 1166.1 1401 1166.1 1395 1069 1395 1069.1 825 1204.1 825 1204.1 822 1206.1 822 1206.1 578 1203.1 578 1203.1 575 913.1 575"/>
                <rect class="cls-3" x="1266.1" y="1555" width="47" height="6"/>
                <polygon class="cls-3" points="1200.1 1401 1201.1 1401 1201.1 1442 1118.1 1442 1118.1 1448 1204.1 1448 1204.1 1446 1207.1 1446 1207.1 1401 1207.1 1398 1207.1 1395 1200.1 1395 1200.1 1401"/>
                <polygon class="cls-3" points="1516.1 1277 1516.1 1120 1527.1 1120 1527.1 1114 1516.1 1114 1516.1 819 1513.1 819 1513.1 817 1502.1 817 1502.1 823 1510.1 823 1510.1 1277 1516.1 1277"/>
                <polygon class="cls-3" points="1757.1 1050 1757.1 1048 1760.1 1048 1760.1 987 1772.1 987 1772.1 981 1741.1 981 1741.1 987 1754.1 987 1754.1 1044 1694.1 1044 1694.1 987 1710.1 987 1710.1 981 1691.1 981 1691.1 983 1688.1 983 1688.1 996 1687.1 996 1687.1 1002 1688.1 1002 1688.1 1070 1686.1 1070 1686.1 1076 1688.1 1076 1688.1 1114 1680.1 1114 1680.1 1120 1701.1 1120 1701.1 1114 1694.1 1114 1694.1 1050 1757.1 1050"/>
                <polygon class="cls-3" points="1565.1 1114 1556.1 1114 1556.1 1120 1565.1 1120 1565.1 1183 1571.1 1183 1571.1 1120 1659.1 1120 1659.1 1114 1627.1 1114 1627.1 1076 1657.1 1076 1657.1 1070 1624.1 1070 1624.1 1072 1621.1 1072 1621.1 1114 1571.1 1114 1571.1 1002 1658.1 1002 1658.1 996 1568.1 996 1568.1 998 1565.1 998 1565.1 1114"/>
                <polygon class="cls-3" points="1556.1 1561 1560.1 1561 1560.1 1595 1566.1 1595 1566.1 1561 1628.1 1561 1628.1 1555 1571.1 1555 1571.1 1234 1565.1 1234 1565.1 1555 1556.1 1555 1556.1 1561"/>
                <polygon class="cls-3" points="913.1 158 913.1 127 922.1 127 922.1 121 894.1 121 894.1 127 907.1 127 907.1 158 913.1 158"/>
                <polygon class="cls-3" points="851.1 336 851.1 127 864.1 127 864.1 121 747.1 121 747.1 127 753.1 127 753.1 175 748.1 175 748.1 181 757.1 181 757.1 178 759.1 178 759.1 127 845.1 127 845.1 336 851.1 336"/>
                <polygon class="cls-3" points="715.1 127 717.1 127 717.1 121 715.1 121 715.1 7 1057.1 7 1057.1 100 1046.1 100 1046.1 106 1057.1 106 1057.1 238 1012.1 238 1012.1 106 1016.1 106 1016.1 100 1009.1 100 1009.1 102 1006.1 102 1006.1 121 952.1 121 952.1 127 1006.1 127 1006.1 238 913.1 238 913.1 188 907.1 188 907.1 294 913.1 294 913.1 244 1057.1 244 1057.1 349 913.1 349 913.1 324 907.1 324 907.1 364 913.1 364 913.1 355 967.1 355 967.1 366 973.1 366 973.1 355 1057.1 355 1057.1 407 973.1 407 973.1 396 967.1 396 967.1 407 953.1 407 953.1 413 1082.1 413 1082.1 431 1088.1 431 1088.1 409 1085.1 409 1085.1 407 1063.1 407 1063.1 4 1060.1 4 1060.1 1 712.1 1 712.1 4 709.1 4 709.1 133 715.1 133 715.1 127"/>
                <rect class="cls-3" x="845.1" y="740" width="6" height="30"/>
                <rect class="cls-3" x="908.1" y="879" width="6" height="200"/>
                <polygon class="cls-3" points="974.1 1544 929.1 1544 929.1 1537 923.1 1537 923.1 1544 897.1 1544 897.1 1550 974.1 1550 974.1 1544"/>
                <polygon class="cls-3" points="1018.1 1550 1067.1 1550 1067.1 1547 1069.1 1547 1069.1 1531 1063.1 1531 1063.1 1544 1018.1 1544 1018.1 1550"/>
                <polygon class="cls-3" points="1063.1 1469 1063.1 1494 1041.1 1494 1041.1 1500 1081.1 1500 1081.1 1494 1069.1 1494 1069.1 1469 1063.1 1469"/>
                <polygon class="cls-3" points="1725.1 1564 1725.1 1558 1687.1 1558 1687.1 1557 1684.1 1557 1684.1 1555 1658.1 1555 1658.1 1561 1681.1 1561 1681.1 1597 1683.1 1597 1683.1 1600 1777.1 1600 1777.1 1594 1759.1 1594 1759.1 1561 1756.1 1561 1756.1 1558 1746.1 1558 1746.1 1564 1753.1 1564 1753.1 1594 1687.1 1594 1687.1 1564 1725.1 1564"/>
                <polygon class="cls-3" points="415.1 1598 402.1 1598 402.1 1578 396.1 1578 396.1 1598 385.1 1598 385.1 1604 415.1 1604 415.1 1598"/>
                <polygon class="cls-3" points="1250.1 1494 1112.1 1494 1112.1 1500 1175.1 1500 1175.1 1558 1178.1 1558 1178.1 1561 1195.1 1561 1195.1 1555 1181.1 1555 1181.1 1500 1229.1 1500 1229.1 1555 1215.1 1555 1215.1 1561 1246.1 1561 1246.1 1555 1235.1 1555 1235.1 1500 1278.1 1500 1278.1 1528 1284.1 1528 1284.1 1497 1282.1 1497 1282.1 1494 1256.1 1494 1256.1 1468 1281.1 1468 1281.1 1462 1256.1 1462 1256.1 1401 1306.1 1401 1306.1 1462 1302.1 1462 1302.1 1468 1314.1 1468 1314.1 1462 1312.1 1462 1312.1 1401 1390.1 1401 1390.1 1452 1337.1 1452 1337.1 1455 1335.1 1455 1335.1 1462 1334.1 1462 1334.1 1468 1335.1 1468 1335.1 1476 1341.1 1476 1341.1 1458 1390.1 1458 1390.1 1506 1340.1 1506 1340.1 1496 1334.1 1496 1334.1 1555 1333.1 1555 1333.1 1561 1356.1 1561 1356.1 1555 1340.1 1555 1340.1 1512 1390.1 1512 1390.1 1555 1376.1 1555 1376.1 1561 1523.1 1561 1523.1 1555 1516.1 1555 1516.1 1520 1510.1 1520 1510.1 1555 1461.1 1555 1461.1 1537 1455.1 1537 1455.1 1555 1396.1 1555 1396.1 1512 1455.1 1512 1455.1 1516 1461.1 1516 1461.1 1509 1459.1 1509 1459.1 1506 1444.1 1506 1444.1 1505 1438.1 1505 1438.1 1506 1396.1 1506 1396.1 1480 1438.1 1480 1438.1 1485 1444.1 1485 1444.1 1480 1510.1 1480 1510.1 1500 1516.1 1500 1516.1 1453 1510.1 1453 1510.1 1474 1418.1 1474 1418.1 1470 1412.1 1470 1412.1 1474 1396.1 1474 1396.1 1450 1412.1 1450 1418.1 1450 1460.1 1450 1460.1 1447 1461.1 1447 1461.1 1399 1510.1 1399 1510.1 1433 1516.1 1433 1516.1 1308 1510.1 1308 1510.1 1331 1497.1 1331 1497.1 1337 1510.1 1337 1510.1 1393 1461.1 1393 1461.1 1337 1477.1 1337 1477.1 1331 1439.1 1331 1439.1 1337 1455.1 1337 1455.1 1405 1433.1 1405 1433.1 1411 1455.1 1411 1455.1 1444 1418.1 1444 1418.1 1411 1418.1 1408 1418.1 1405 1411.1 1405 1411.1 1411 1412.1 1411 1412.1 1444 1396.1 1444 1396.1 1411 1396.1 1405 1396.1 1337 1418.1 1337 1418.1 1331 1396.1 1331 1396.1 823 1474.1 823 1474.1 817 1383.1 817 1383.1 761 1404.1 761 1404.1 755 1383.1 755 1383.1 578 1377.1 578 1377.1 820 1380.1 820 1380.1 823 1390.1 823 1390.1 1395 1244.1 1395 1244.1 1401 1250.1 1401 1250.1 1494"/>
                <path class="cls-3" d="M182.1,1880.4l51.9.6v-3h1.8l.2-27h2v-6h-18v6h10.2l-.2,23.6-48-.6v-23l8.1-.1-.1-5.6-55,.5v-5h-6v178H7v-263h123v57h6v-60h-2v-3H7v-75h161v-6h-32v-190h-6v190H7v-240h123v23h6v-209h-6v180H7v-235h123v28h6v-154h-6v120H7v-246.8h122v100h6v-103h-1v-3H7v-80h127v-3h1v-27h-6v24H7v-244h123v193h3v1h76v-6h-73v-188h86v-6H4v1H1v1430h3v1h187v-6h-9l.1-138.6h0ZM135.1,1851.5l41-.4v167.9h-41v-167.5Z"/>
                <polygon class="cls-3" points="263.1 1851 265.6 1851 265.9 1962 263.1 1962 263.1 1968 265.9 1968 266.1 2019 233.3 2019 233.1 1968 235.1 1968 235.1 1962 230.1 1962 230.1 1965 226.9 1965 227.1 2019 218.1 2019 218.1 2025 300.1 2025 300.1 2019 272.6 2019 272.1 1851 303.1 1851 303.1 1845 263.1 1845 263.1 1851"/>
                <polygon class="cls-3" points="359.1 1832 352.6 1832 352.6 1845 330.1 1845 330.1 1851 352.6 1851 353.1 2019 328.1 2019 328.1 2025 356.1 2025 358.1 2025 377.1 2025 377.1 2019 359.6 2019 359.2 1850 377.1 1850 377.1 1844 359.1 1844 359.1 1832"/>
                <path class="cls-3" d="M225.1,1656v13h-30v6h30v113h2v1h28v-6h-24v-36h41.8l.2,41h1v1h7v-6h-1.8l-.2-36h42.1l-.2,36h-21v6h29v-6h-2.2l.2-40h-3v-2h-45v-2h-6.2v2h-41.7v-16h42v1h6v-8h-6v1h-42v-16h42v1h6v-29h74v108h-2.9l-.1,5.9h3v14h6.2v-15h2.8v-6h-2.8v-113h2.8v-6h-2.8v-59h3.8v-6h-3.8v-48h51.9v-6h-51.9l-.1-626h46v-29h-6v23h-137v6h18v11h6v-11h66.8v46h-66.9v-8h-6v8h-48v-7h-6v19h6v-6h120.8v44h-120.8v-11h-6v38h6v-21h120.8v111h-120.8v-63h-6v79h6v-10h120.8v45h-120.8v-8h-6v74h6v-60h41v44h-7v6h17v-6h-4v-44h36v44h-5v6h14v-6h-3v-44h31.9v44h-1.9v6h1.9v44h-1.9v6h1.9v44h-31.9v-44h3v-6h-14v6h5v44h-36v-44h4v-6h-17v6h7v44h-41v-44h7v-6h-7v-7h-6v120h6v-7h7v-6h-7v-44h41v44h-7v6h17v-6h-4v-44h36v44h-5v6h14v-6h-3v-44h31.9v44h-1.9v6h1.9v42h-3.9v6h3.9v45h-32.9v-46h2v-6h-13v6h5v46h-36v-45h4v-6h-17v6h7v45h-40v-58h-6v205h6v-14h60v12h3v1h4v-6h-1v-33h26v-6h-26v-69h54.9v69.3l-1.1.1.7,6h.4v32.7h-35v6h3v12h6v-12h26v42h-26v-11h-6v11h-52v6h4v22h-42v-22h11v-6h-11v-13h-5.9ZM294.1,1507v3h-2v53h-22v6h22v39h-60v-39h11v-6h-11v-76h120.9v20h-58.9Z"/>
                <polygon class="cls-3" points="304.1 787 270.1 787 270.1 599 359.1 599 359.1 593 244.1 593 244.1 599 264.1 599 264.1 787 236.1 787 236.1 793 304.1 793 304.1 787"/>
                <polygon class="cls-3" points="399.1 787 331.1 787 331.1 793 363.1 793 363.1 797 369.1 797 369.1 793 403.1 793 403.1 792 405.1 792 405.1 599 427.1 599 427.1 593 381.1 593 381.1 599 399.1 599 399.1 787"/>
                <polygon class="cls-3" points="232.1 834 399.1 834 399.1 862 405.1 862 405.1 834 549.1 834 549.1 831 550.1 831 550.1 594 549.1 594 549.1 593 449.1 593 449.1 599 544.1 599 544.1 828 369.1 828 369.1 824 363.1 824 363.1 828 229.1 828 229.1 830 226.1 830 226.1 863 232.1 863 232.1 834"/>
                <polygon class="cls-3" points="232.1 918 236.1 918 236.1 912 232.1 912 232.1 890 226.1 890 226.1 930 232.1 930 232.1 918"/>
                <polygon class="cls-3" points="1352.1 337 1409.1 337 1409.1 498 1412.1 498 1412.1 501 1503.8 500.2 1503.1 575 1433.1 575 1433.1 581 1456.1 581 1456.1 661 1446.1 661 1446.1 667 1456.1 667 1456.1 755 1430.1 755 1430.1 761 1459.1 761 1459.1 759 1462.1 759 1462.1 709 1517.1 709 1517.1 703 1462.1 703 1462.1 645 1467.1 645 1467.1 639 1462.1 639 1462.1 581 1504.1 581 1504.1 639 1493.1 639 1493.1 645 1507.1 645 1507.1 643 1510.1 643 1510.1 581 1520.1 581 1520.1 575 1509.4 575 1510.1 500.1 1522.2 500 1522.1 494 1510.1 494.1 1510.1 487 1504.1 487 1504.1 494.2 1415.1 495 1415.1 405 1460.1 405 1460.1 424 1466.1 424 1466.1 405 1480.1 405 1480.1 441 1466.1 441 1466.1 439 1460.1 439 1460.1 444 1463.1 444 1463.1 447 1487.1 447 1487.1 441 1486.1 441 1486.1 405 1504.1 405 1504.1 441 1501.1 441 1501.1 447 1504.1 447 1504.1 464 1510.1 464 1510.1 336 1529.1 336 1529.1 330 1495.1 330 1495.1 336 1504.1 336 1504.1 399 1466.1 399 1466.1 336 1473.1 336 1473.1 330 1442.1 330 1442.1 336 1460.1 336 1460.1 399 1415.1 399 1415.1 337 1419.1 337 1419.1 331 1355.1 331 1355.1 96 1866.1 96 1866.1 330 1552.1 330 1552.1 336 1566.1 336 1566.1 344 1572.1 344 1572.1 336 1667.1 336 1667.1 344 1673.1 344 1673.1 336 1718.1 336 1718.1 344 1724.1 344 1724.1 336 1866.1 336 1866.1 344 1872.1 344 1872.1 93 1869.1 93 1869.1 90 1352.1 90 1352.1 93 1349.1 93 1349.1 334 1352.1 334 1352.1 337"/>
                <polygon class="cls-3" points="1869.1 404 1872.1 404 1872.1 367 1866.1 367 1866.1 401 1725.1 401 1725.1 367 1719.1 367 1719.1 372 1709.1 372 1709.1 378 1719.1 378 1719.1 494 1673.1 494 1673.1 417 1667.1 417 1667.1 424 1650.1 424 1650.1 423 1644.1 423 1644.1 424 1632.1 424 1632.1 402 1644.1 402 1644.1 413 1650.1 413 1650.1 402 1667.1 402 1670.1 402 1673.1 402 1673.1 393 1667.1 393 1667.1 396 1650.1 396 1650.1 389 1644.1 389 1644.1 396 1632.1 396 1632.1 378 1644.1 378 1644.1 379 1650.1 379 1650.1 378 1667.1 378 1667.1 379 1673.1 379 1673.1 378 1686.1 378 1686.1 372 1673.1 372 1673.1 367 1667.1 367 1667.1 372 1610.1 372 1610.1 378 1626.1 378 1626.1 424 1572.1 424 1572.1 378 1587.1 378 1587.1 372 1572.1 372 1572.1 367 1566.1 367 1566.1 464 1572.1 464 1572.1 430 1667.1 430 1667.1 494 1572.1 494 1572.1 487 1566.1 487 1566.1 494 1552.1 494 1552.1 500 1565.9 500 1566.1 575 1546.1 575 1546.1 581 1565.1 581 1565.1 703 1543.1 703 1543.1 709 1565.1 709 1565.1 714 1571.1 714 1571.1 622 1613.1 622 1613.1 628 1619.1 628 1619.1 619 1616.1 619 1616.1 616 1571.1 616 1571.1 581 1600.1 581 1600.1 575 1572.3 575 1572.1 500 1723.1 500 1723.1 497 1725.1 497 1725.1 407 1869.1 407 1869.1 404"/>
              </g>
              <line class="cls-2" x1="1569.1" y1="496" x2="1569.3" y2="578"/>
            </g>
          </g>
        </g>
      </g>
      <line class="cls-1" x1="1377.4" y1="578" x2="1405.7" y2="578"/>
    </g>
  </g>
</svg>