<?xml version="1.0" encoding="UTF-8"?>
<svg id="_Слой_2" data-name="Слой_2" xmlns="http://www.w3.org/2000/svg" viewBox="0 0 1933 2027">
  <defs>
    <style>
      .cls-1 {
        fill: #222221;
        stroke: #222221;
        stroke-miterlimit: 10;
        stroke-width: 2px;
      }
    </style>
  </defs>
  <g id="Object">
    <g>
      <polygon class="cls-1" points="351 1511 351 1505 290 1505 290 1508 289 1508 289 1560 262 1560 262 1566 289 1566 289 1606 267 1606 267 1612 289 1612 289 1620 292 1620 292 1623 298 1623 298 1617 295 1617 295 1584 330 1584 330 1578 295 1578 295 1511 351 1511"/>
      <polygon class="cls-1" points="351 1479 232 1479 232 1462 226 1462 226 1624 232 1624 232 1612 251 1612 251 1606 232 1606 232 1566 247 1566 247 1560 232 1560 232 1485 351 1485 351 1479"/>
      <polygon class="cls-1" points="351 1423 232 1423 232 1351 226 1351 226 1440 232 1440 232 1429 351 1429 351 1423"/>
      <polygon class="cls-1" points="351 1177.4 232 1178 232 1167 226 1167 226 1328 232 1328 232 1184 351 1183.4 351 1177.4"/>
      <polygon class="cls-1" points="226 1144 232 1144 232 1136 351 1136 351 1130 232 1130 232 1117 226 1117 226 1144"/>
      <polygon class="cls-1" points="226 1093 232 1093 232 1066 351 1066 351 1060 232 1060 232 1055 226 1055 226 1093"/>
      <polygon class="cls-1" points="226 997 226 1032 232 1032 232 1015 351 1015 351 1009 232 1009 232 997 226 997"/>
      <polygon class="cls-1" points="226 972 226 973 232 973 232 972 232 965 335 965 351 965 351 959 335 959 232 959 232 954 232 953 226 953 226 954 190 954 190 960 226 960 226 972"/>
      <polygon class="cls-1" points="232 916 237 916 237 910 232 910 232 883 226 883 226 930 232 930 232 916"/>
      <rect class="cls-1" x="124" y="1749" width="6" height="55"/>
      <polygon class="cls-1" points="483 1665 483 1671 499 1671 499 1782 483 1782 483 1788 499 1788 499 1798 505 1798 505 1671 680 1671 680 1665 502 1665 483 1665"/>
      <polygon class="cls-1" points="939 1990 993.5 1983.4 992.8 1977.4 935.4 1984.4 935.7 1987 933 1987 933 2001 889 2001 752 2001 752 2007 889 2007 1036 2007 1036 2001 939 2001 939 1990"/>
      <polygon class="cls-1" points="1030 1973.6 1024.7 1973.9 1025 1979.9 1032.7 1979.5 1032.6 1977 1036 1977 1036 1715 1032.5 1715 1032.9 1711.8 1024.8 1710.9 1024.1 1716.9 1030 1717.6 1030 1973.6"/>
      <polygon class="cls-1" points="934 1703 937.2 1703 936.8 1706.2 993 1713 993.7 1707 940 1700.5 940 1671 1004 1671 1004 1665 984 1665 984 1660 978 1660 978 1665 913 1665 913 1553 978 1553 978 1632 984 1632 984 1553 984 1550 984 1547 909 1547 909 1550 907 1550 907 1665 889 1665 889 1671 934 1671 934 1703"/>
      <rect class="cls-1" x="1191" y="1879" width="226" height="6"/>
      <polygon class="cls-1" points="1758 1753 1765 1753 1765 1747 1758 1747 1758 1713 1752 1713 1752 1769 1758 1769 1758 1753"/>
      <rect class="cls-1" x="1414" y="1665" width="21" height="6"/>
      <rect class="cls-1" x="1690" y="1702" width="6" height="57"/>
      <polygon class="cls-1" points="1690 1783 1649 1783 1649 1760 1643 1760 1643 1783 1615 1783 1615 1773 1609 1773 1609 1783 1578 1783 1578 1724 1609 1724 1609 1755 1615 1755 1615 1724 1643 1724 1643 1742 1649 1742 1649 1692 1643 1692 1643 1718 1615 1718 1615 1692 1609 1692 1609 1718 1578 1718 1578 1671 1609 1671 1609 1674 1615 1674 1615 1671 1643 1671 1643 1674 1649 1674 1649 1671 1653 1671 1653 1665 1549 1665 1549 1671 1572 1671 1572 1729 1561 1729 1561 1735 1572 1735 1572 1783 1545 1783 1545 1765 1539 1765 1539 1783 1504 1783 1504 1735 1539 1735 1539 1746 1545 1746 1545 1735 1546 1735 1546 1729 1504 1729 1504 1721 1503 1721 1503 1718 1497 1718 1497 1724 1498 1724 1498 1783 1424 1783 1424 1724 1477 1724 1477 1718 1476 1718 1476 1671 1527 1671 1527 1665 1459 1665 1459 1671 1470 1671 1470 1718 1424 1718 1424 1698 1418 1698 1418 1739 1414 1739 1414 1745 1418 1745 1418 1783 1385 1783 1385 1765 1379 1765 1379 1783 1338 1783 1338 1745 1379 1745 1379 1746 1385 1746 1385 1745 1393 1745 1393 1739 1338 1739 1338 1726 1332 1726 1332 1783 1296 1783 1296 1671 1332 1671 1332 1706 1338 1706 1338 1671 1395 1671 1395 1668 1395 1665 1395 1632 1389 1632 1389 1665 1229 1665 1229 1671 1240 1671 1240 1677 1246 1677 1246 1671 1290 1671 1290 1705 1270 1705 1270 1698 1264 1698 1264 1705 1246 1705 1246 1696 1240 1696 1240 1727 1246 1727 1246 1711 1264 1711 1264 1719 1270 1719 1270 1711 1290 1711 1290 1746 1246 1746 1246 1745 1240 1745 1240 1746 1240 1756 1240 1757 1246 1757 1246 1756 1246 1752 1290 1752 1290 1783 1246 1783 1246 1776 1240 1776 1240 1783 1191 1783 1191 1789 1382 1789 1693 1789 1693 1786 1696 1786 1696 1778 1690 1778 1690 1783"/>
      <polygon class="cls-1" points="1696 1646 1690 1646 1690 1665 1675 1665 1675 1671 1690 1671 1690 1683 1696 1683 1696 1671 1711 1671 1711 1665 1696 1665 1696 1646"/>
      <polygon class="cls-1" points="1629 1337 1629 1250 1642 1250 1642 1244 1613 1244 1613 1250 1623 1250 1623 1303 1572 1303 1572 1250 1581 1250 1581 1244 1556 1244 1556 1250 1566 1250 1566 1306 1568 1306 1568 1309 1623 1309 1623 1337 1570 1337 1570 1340 1568 1340 1568 1355 1574 1355 1574 1343 1611 1343 1611 1383 1594 1383 1594 1389 1611 1389 1611 1430 1574 1430 1574 1389 1576 1389 1576 1383 1574 1383 1574 1373 1568 1373 1568 1430 1551 1430 1551 1436 1605 1436 1605 1497 1514 1497 1514 1436 1519 1436 1519 1430 1514 1430 1514 1250 1524 1250 1524 1244 1514 1244 1514 1235 1508 1235 1508 1289 1494 1289 1494 1295 1508 1295 1508 1510 1514 1510 1514 1503 1567 1503 1567 1563 1514 1563 1514 1537 1508 1537 1508 1563 1474 1563 1474 1569 1690 1569 1690 1611 1696 1611 1696 1540 1690 1540 1690 1563 1573 1563 1573 1503 1690 1503 1693 1503 1696 1503 1696 1235 1690 1235 1690 1244 1673 1244 1673 1250 1690 1250 1690 1430 1685 1430 1685 1436 1690 1436 1690 1497 1611 1497 1611 1436 1663 1436 1663 1430 1661 1430 1661 1364 1655 1364 1655 1383 1647 1383 1647 1389 1655 1389 1655 1430 1617 1430 1617 1389 1630 1389 1630 1383 1617 1383 1617 1343 1655 1343 1655 1346 1661 1346 1661 1341 1659 1341 1659 1337 1629 1337"/>
      <polygon class="cls-1" points="856 1646 850 1646 850 1665 712 1665 712 1671 857 1671 857 1665 856 1665 856 1646"/>
      <path class="cls-1" d="M856,1119h-6v199h-124v-237h124v8h6v-200h-6v186h-124v-246l124,.1v28.9h6v-32h-3v-2.9l-141-.1v-7h-6v7h-301v-8h-6v21h-170v3h-3v21h6v-18h167v68h-140v6h94v701h-39v6h3v12h6v-12h30v42h-30v-15h-6v15h-55v6h6v21h-36v-21h14v-6h-14v-17h-6v17h-35v6h35v106h3v3h23v-6h-20v-30h14v4h6v-4h16v30h-1v6h8v-6h-1v-30h20v4h6v-4h17v30h-25v6h34v-6h-3v-33h-3v-3h-46v-2h-6v2h-36v-19h36v2h6v-7h-3v-1h-39v-15h42v-27h79v111h-4v6h15v-6h-5v-171h9v-6h-9v-51h46v51h-18v6h48v54h-37v6h37v111h-37v6h40v-3h3v-178h-3v-2h-27v-51h309v16h1v3h129v35h6v-240h-6v199h-124v-243h124v12h6v-144h13v-6h-13v-67ZM720,1077v471h-361v-632h45v-3h1v-84h315v248Z"/>
      <rect class="cls-1" x="850" y="665" width="6" height="28"/>
      <rect class="cls-1" x="850" y="752" width="6" height="30"/>
      <polygon class="cls-1" points="1081 1477 1075 1477 1075 1502 1043 1502 1043 1508 1083 1508 1083 1502 1081 1502 1081 1477"/>
      <path class="cls-1" d="M1256,1506h3v-98h130v188h6v-27h33v-6h-33v-98h54v-1h3v-66h-6v23h-6v6h6v32h-24v-32h1v-6h-8v6h1v32h-21v-32h2v-6h-2v-15h-3v-1h3v-110h51v84h6v-84h11v-6h-68v-448h7v-6h-321v-27h-6v7h-157v2h-3v26h6v-22h154v64h-154v-11h-6v25h6v-8h154v48h-154v-9h-6v158h6v-143h154v187h-155v-13h-6v24h6v-5h155v48h-155v-13h-6v13h-12v6h25v178h6v-178h142v234h-142v-24h-6v104h3v2h80v-6h-77v-70h142v13h6v-37h172v94h-139v6h142v-2ZM1081,1402v-561h308v561h-308Z"/>
      <polygon class="cls-1" points="1479 965 1485 965 1485 958 1573 958 1573 957 1576 957 1576 936 1570 936 1570 952 1485 952 1485 841 1570 841 1570 906 1576 906 1576 810 1570 810 1570 835 1438 835 1438 841 1479 841 1479 965"/>
      <rect class="cls-1" x="1479" y="997" width="6" height="139"/>
      <polygon class="cls-1" points="1485 1167 1479 1167 1479 1190 1482 1190 1482 1191 1508 1191 1508 1203 1514 1203 1514 1191 1644 1191 1644 1185 1485 1185 1485 1167"/>
      <path class="cls-1" d="M1929,576v-3h-357v-73.9l153,.5v-1.6h2v-92h143v-2h3V89h-2v-1.3l-520,.3v4h-2v241h4v1h56v163h3v2h92v75h-591v-85.2l174,.2v-4h2v-76h-2v-4h-24V4h-1V1h-349v1h-3v484h1v3h136v84l-138,.2v1.8h-3v15H4v1H1v1432h2v3h1926v-3h3V576h-3ZM1926,1185h-251v6h15v13h6v-13h230v474h-185v6h11v13h6v-13h168v76h-140v6h140v43h-168v-6h-6v11h3v1h171v77h-243v6h243v135h-303v-135h28v-6h-84v6h50v135h-113v-135h32v-6h-88v6h50v135h-348v-135h10v-6h-10v-90h3v-6h-3v-112h32v-6h-32v-115h-1v-3h-143v6h1v74h2v3h11v-6h-7v-71h131v52h-90v3h-2v16h-4v6h4v2h6v-21h86v54h-86v-5h-6v5h-9v6h28v53h6v-53h67v112h-67v-28h-6v63h6v-29h67v90h-67v-30h-6v49h6v-13h67v135h-67v-91h-6v91h-345v-33h179v-6h-182v3h-3v36h-215v-190h-6v12h-25v6h25v172h-57v-172h1v-6h-30v6h23v172h-81v-172h25v-6h-25v-13h-6v13h-23v6h22v172h-82v-172h36v-6h-44v6h2v108h-2v6h2v58h-29.7l-.3-60h5v-6h-8v3h-3l.3,63h-39l-.2-139h45.9v-3h1v-30h3v-6h-24v6h15v27h-40.9v-27h2v-6h-57v-12h-6v15h3v3h52l.3,172H7.1v-272h126v-6H7.1v-76h117v2h6v-2h43v-6h-43v-186h-6v186H7.1v-234h117v25h6v-25h3v-6h-3v-183h-6v183H7.1v-237h117v30h6v-30h3v-6h-3v-122h-6v122H7.1v-241h117v95h6v-71h36v-6h-36v-18h3v-6H7.1v-85h126v-6h-3v-29h-6v29H7.1v-243h116v190h6v-1h77v-6h-77v-183h132v183h-31v6h72v-6h-35v-183h132v183h-73v6h73v7h6v-7h57v-6h-57v-183h141v183h-60v6h184v-6h-118v-183h154v183h-12v6h12v8h6v-213.8l135-.2v20h6v-341h-6v225h-131V195h131v32h6v-50h-6v12h-131v-56h131v14h6v-14h14v-6h-151V7h341v120h-159v6h14v159h6v-159h139v219h-139v-28h-6v40h6v-6h139v47h-109v6h135v72l-170-.2v-14.8h-6v234h2v3l63-.3v-6l-12,.1v-13.8h-6v13.8l-41,.2v-44h41v16h6v-16h1v-6h-48v-69h84v69h-21v6h21v43h-11v6h17v-49h25v-6h-25v-69h71v69h-32v6h32v43h-57v6h57v21h-50v-8h-6v29h6v-15h22v15h6v-15h22v38h-22v-9h-6v9h-22v-9h-6v9h-39v-14h-6v14h-51v-34h57v-5h-3v-1h-57v1h-3v42h1v3h157v4h6v-4h42v-3h2v-68h2v-6h-17v6h9v40h-10v6h10v19h-38v-19h15v-6h-15v-40h14v-6h-14v-118h127v70h6v-70h96v127h-58v6h58v17h6v-80h16v-6h-16v-64h55v64h-17v6h17v119h-55v-17h-6v21h3v2h92v-6h-28v-189h88v189h-33v6h38v-3h1v-34h45v-2h3v-34h-6v30h-42v-75h2v-6h-2v-71h33v71h-10v6h19v25h6v-28h-3v-3h-6v-71h8v-6h-7v-75h13v-6h-13v-36h1v-6h-66v3h-3v6h6v-3h27v3h6v-3h23v36h-23v-18h-6v18h-27v-17h-6v17h-27v-100h3v-6h-3v-53h3v-6h-63V94l512-.3v234.3h-101v6h101v66h-140v-66h7v-6h-27v6h14v103h-23v6h23v50.6l-48-.2v-50.4h9v-6h-9v-103h10v-6h-18v6h2v53h-6v6h6v100.4l-31-.1v-17.3h-6v17.3l-24-.1v-17.2h-6v17.2l-31-.1v-36.1h31v3h6v-3h24v3h6v-6h-3v-3h-67v1h-3v41h-11v6h14v74h-18v6h22v38h6v-38h350l-.1,606h0Z"/>
      <rect class="cls-1" x="1570" y="650" width="6" height="128"/>
      <polygon class="cls-1" points="1143 772 1146 772 1146 775 1150 775 1150 769 1149 769 1149 704 1207 704 1207 769 1172 769 1172 775 1212 775 1212 772 1213 772 1213 713 1229 713 1229 707 1213 707 1213 672 1207 672 1207 698 1141 698 1141 704 1143 704 1143 772"/>
      <polygon class="cls-1" points="913 411 924 411 924 405 913 405 913 392 907 392 907 439 913 439 913 411"/>
      <polygon class="cls-1" points="1523 328 1450 328 1450 334 1508 334 1508 387 1440 387 1440 393 1458 393 1458 403 1464 403 1464 393 1508 393 1508 430 1464 430 1464 418 1458 418 1458 434 1461 434 1461 436 1508 436 1511 436 1514 436 1514 334 1523 334 1523 328"/>
      <polygon class="cls-1" points="1563 436 1566 436 1569 436 1617 436 1617 433 1620 433 1620 418 1614 418 1614 430 1569 430 1569 393 1614 393 1614 402 1620 402 1620 393 1645 393 1645 387 1569 387 1569 334 1640 334 1640 328 1555 328 1555 334 1563 334 1563 436"/>
    </g>
  </g>
</svg>