<?xml version="1.0" encoding="UTF-8"?>
<svg id="_Слой_2" data-name="Слой_2" xmlns="http://www.w3.org/2000/svg" xmlns:xlink="http://www.w3.org/1999/xlink" viewBox="0 0 1931 2027">
  <defs>
    <style>
      .cls-1 {
        stroke-width: 4.4px;
      }

      .cls-1, .cls-2 {
        stroke: #000;
      }

      .cls-1, .cls-2, .cls-3, .cls-4, .cls-5, .cls-6 {
        fill: none;
      }

      .cls-1, .cls-2, .cls-4, .cls-5, .cls-6 {
        stroke-linejoin: round;
      }

      .cls-2 {
        stroke-width: .35px;
      }

      .cls-7, .cls-8, .cls-9, .cls-10, .cls-11 {
        stroke-miterlimit: 10;
      }

      .cls-7, .cls-9, .cls-11 {
        stroke: #303e8b;
      }

      .cls-7, .cls-11 {
        fill: #f8eff1;
      }

      .cls-12 {
        letter-spacing: -.06em;
      }

      .cls-8 {
        fill: #fff;
      }

      .cls-8, .cls-13, .cls-14, .cls-15, .cls-16, .cls-17, .cls-18, .cls-19, .cls-20, .cls-21, .cls-22, .cls-11 {
        isolation: isolate;
      }

      .cls-8, .cls-4 {
        stroke: #00acec;
      }

      .cls-8, .cls-11 {
        opacity: .75;
      }

      .cls-13 {
        font-size: 19px;
      }

      .cls-13, .cls-14, .cls-15, .cls-20, .cls-21, .cls-22 {
        font-family: Arial-BoldMT, Arial;
      }

      .cls-13, .cls-14, .cls-15, .cls-20, .cls-21, .cls-22, .cls-23 {
        font-weight: 700;
      }

      .cls-14 {
        letter-spacing: -.04em;
      }

      .cls-14, .cls-15, .cls-19, .cls-21, .cls-22 {
        font-size: 50px;
      }

      .cls-15 {
        letter-spacing: -.02em;
      }

      .cls-16 {
        font-size: 4.23px;
      }

      .cls-16, .cls-17, .cls-18 {
        font-family: MicrosoftSansSerif, 'Microsoft Sans Serif';
      }

      .cls-5 {
        stroke: #364892;
      }

      .cls-9, .cls-24, .cls-25 {
        fill-rule: evenodd;
      }

      .cls-9, .cls-25, .cls-26 {
        fill: #a1c6e7;
      }

      .cls-24 {
        fill: #262324;
      }

      .cls-27 {
        fill: #5b65a8;
      }

      .cls-28 {
        fill: #cbcbcb;
      }

      .cls-6 {
        stroke: #394d97;
      }

      .cls-29 {
        letter-spacing: -.01em;
      }

      .cls-30 {
        fill: #ebebf3;
      }

      .cls-17 {
        font-size: 4.03px;
      }

      .cls-31 {
        fill: #828080;
      }

      .cls-18 {
        font-size: 4.13px;
      }

      .cls-32 {
        letter-spacing: -.03em;
      }

      .cls-33 {
        letter-spacing: -.04em;
      }

      .cls-19 {
        font-family: FranklinGothic-Medium, 'Franklin Gothic Medium';
        font-weight: 500;
      }

      .cls-20 {
        font-size: 20px;
      }

      .cls-34 {
        letter-spacing: -.02em;
      }

      .cls-10 {
        fill: #222221;
        stroke: #222221;
        stroke-width: 2px;
      }

      .cls-21 {
        letter-spacing: .02em;
      }

      .cls-23 {
        font-family: Bahnschrift-Bold, Bahnschrift;
        font-size: 25px;
        font-variation-settings: 'wght' 700, 'wdth' 100;
      }
    </style>
  </defs>
  <g id="Object">
    <g>
      <g>
        <rect class="cls-30" x="4" y="674" width="357" height="977"/>
        <rect class="cls-31" x="231" y="1429" width="130" height="56"/>
        <rect class="cls-26" x="1357" y="94" width="511" height="236"/>
        <rect class="cls-30" x="796" y="784" width="201" height="713"/>
        <rect class="cls-30" x="382" y="718" width="346" height="111"/>
        <rect class="cls-30" x="247" y="591" width="165" height="251"/>
        <rect class="cls-30" x="1" y="1529" width="1214" height="498"/>
        <rect class="cls-30" x="715" y="1422" width="1214" height="476"/>
        <rect class="cls-31" x="1573" y="578" width="352" height="1092"/>
        <rect class="cls-30" x="1502" y="493" width="69" height="1092"/>
        <rect class="cls-30" x="709" y="581" width="866" height="251"/>
        <rect class="cls-30" x="845" y="186" width="62" height="404"/>
        <rect class="cls-31" x="1471" y="577" width="32" height="71"/>
        <rect class="cls-31" x="499" y="1675" width="573" height="343"/>
        <rect class="cls-28" x="1467" y="649" width="54" height="82"/>
        <rect class="cls-28" x="1724" y="336" width="148" height="65"/>
        <rect class="cls-28" x="906" y="350" width="152" height="61"/>
        <rect class="cls-28" x="907" y="406" width="178" height="78"/>
        <rect class="cls-28" x="232" y="911" width="123" height="78"/>
        <rect class="cls-28" x="232" y="839" width="182" height="78"/>
        <rect class="cls-28" x="392" y="1605" width="53" height="185"/>
        <rect class="cls-28" x="361" y="1532" width="53" height="258"/>
        <rect class="cls-28" x="268" y="1842" width="175" height="176"/>
        <rect class="cls-28" x="932" y="1417" width="327" height="91"/>
        <rect class="cls-28" x="1748" y="1669" width="176" height="129"/>
        <rect class="cls-28" x="1375" y="577" width="97" height="193"/>
        <rect class="cls-31" x="183" y="1841" width="90" height="179"/>
        <rect class="cls-31" x="930" y="1590" width="149" height="80"/>
        <rect class="cls-31" x="1151" y="1590" width="169" height="201"/>
        <rect class="cls-31" x="921" y="1131" width="154" height="60"/>
        <rect class="cls-31" x="231" y="1670" width="130" height="112"/>
        <rect class="cls-31" x="1399" y="1566" width="297" height="102"/>
        <rect class="cls-26" x="906" y="117" width="152" height="230"/>
        <rect class="cls-26" x="711" y="320" width="134" height="163"/>
        <rect class="cls-26" x="711" y="117" width="134" height="205"/>
        <rect class="cls-26" x="708" y="7" width="350" height="179"/>
        <rect class="cls-26" x="232" y="962" width="124" height="462"/>
        <rect class="cls-27" x="918" y="577" width="160" height="193"/>
        <polygon class="cls-27" points="232 1672 232 1695 277 1695 277 1659.8 232 1672"/>
        <rect class="cls-27" x="233" y="1481" width="128" height="191"/>
        <rect class="cls-27" x="1509" y="1671" width="190" height="114"/>
        <rect class="cls-26" x="1395" y="835" width="119" height="598"/>
        <rect class="cls-26" x="1412" y="330" width="313" height="166"/>
        <rect class="cls-26" x="1077" y="580" width="298" height="190"/>
        <rect class="cls-26" x="660" y="1532" width="195" height="81"/>
        <rect class="cls-26" x="719" y="1318" width="137" height="298"/>
        <rect class="cls-26" x="714" y="835" width="142" height="489"/>
        <rect class="cls-26" x="932" y="1187" width="149" height="242"/>
        <rect class="cls-26" x="918" y="813" width="159" height="323"/>
        <rect class="cls-26" x="1392" y="1880" width="536" height="144"/>
        <rect class="cls-26" x="1078" y="1786" width="318" height="234"/>
        <polyline class="cls-26" points="130 1845 185 1845 185 2018 130 2017.2"/>
        <rect class="cls-26" x="7" y="1755" width="129" height="262"/>
        <rect class="cls-26" x="3" y="930" width="133" height="735"/>
        <rect class="cls-26" x="129" y="596" width="579" height="193"/>
        <rect class="cls-26" x="2" y="596" width="133" height="248"/>
        <g id="_Слой_1-2">
          <g>
            <polygon class="cls-10" points="239 933 239 918 243 918 243 912 239 912 239 885 233 885 233 933 239 933"/>
            <rect class="cls-10" x="447" y="783" width="23" height="6"/>
            <polygon class="cls-10" points="680 783 560 783 560 704 554 704 554 783 493 783 493 789 680 789 680 783"/>
            <path class="cls-10" d="M1928,576v-2h-357v-76h153v-3h3v-90h144v-3h3V92h-3v-3l-517,1v3h-3v240h3v3h52v160h3v2h94v75l-590,.5v-84.5h174v-4h1v-79h-2v-1h-24V3h-3V1h-348v3h-3v482h4v2l132,.1v85.9h-135v3h-1v16H2v3h-1v1428h1927v-3h2V576h-2ZM1575,979v-399h349v1088h-228v-482h-3v-3h-118v-204ZM1721,374v118h-170v6h14v76h-10v6h14v603h-6v6h6v33h6v-33h115v178h-115v-108h-6v186h6v-72h115v191h-115v-83h-6v83h-11v6h132v98h-176v-98h7v-6h-52v6h39v98h-108v-98h33v-6h-33v-44h-6v148h-11v6h125v46h6v-46h51v31h-27v-14h-6v34h6v-14h27v37h-51v-3h-6v13h6v-4h51v31h-51v-2h-6v2h-44v6h232v-3h3v-16h-6v13h-45v-14h-6v14h-71v-59h31v43h6v-43h34v21h6v-41h-6v14h-34v-33h-6v33h-31v-46h71v8h6v-8h44v6h6v-6h52v18h6v-18h168v74h-168v-20h-6v29h6v-3h168v42h-168v-4h-6v8h2v2h172v77h-249v6h249v133h-299v-133h9v-6h-173v6h158v133h-220v-133h24v-6h-24v-88h28v-6h-58v6h24v227h-315v-227h16v-6h-16v-111h13v-6h-13v-21h-6v21h-140v-73h140v18h6v-22h-4v-2h-145v2h-3v77h-67v-5h-6v5h-365v6h11v41h6v-41h52v344h-52v-37h-6v37h-52v-175h-3v-2h-22v6h19v171h-78v-171h22v-6h-22v-1h-8v2h-23v6h23v170h-82v-170h36v-6h-45v6h3v107h-2v6h2v57h-29v-57h4v-6h-7v2h-3v61h-41v-137h47v-3h1v-30h3v-6h-25v6h16v27h-42v-27h4v-6l-59-.1v-11.9h-6v15h2v3l53,.1v169.9H7v-263h123v51h6v-55h-3v-2H7v-77h167v-6h-38v-190h-6v190H7v-236h123v23h6v-216h-6v187H7v-239h123v31h6v-102h-6v65H7v-114h123v26h6v-33h-6v1H7v-122h123v98h6v-73h36v-6h-36v-23h-3v-2H7v-85h126v-2h3v-32h-6v28H7v-241h123v191h6v-1h77v-6h-77v-184h133v184h-32v6h72v-6h-34v-184h131v184h-73v6h73v6h6v-6h9v-6h-9v-184h44v153h6v-153h246v184h-5v6h5v11h6v-11h4v-6h-4v-203h140v-6h-4v-114h-6v22l-130-.1v-153.9h125v86h6v-110h-6v18h-125V124h125v138h6v-75h9v-6h-9v-60h-3v-3h-128V7h342v111h-52v6h52v37h-144v-37h51v-6h-54v3h-3v60h-11v6h11v77h6v-97h144v180h-144v-40h-6v54h6v-8h144v52h-104v6h130v72h-169v-13h-6v108h3v2h8v189h3v1h59v-6h-3v-5h-6v5h-47v-65h47v34h6v-37h-3v-3h-10v-5h-6v5h-34v-39h34v8h6v-8h2v-6h-42v-68l74-.1v68.1h-7v6h7v42h6v-117l71-.1v69.1h-45v6h45v37h-51v3h-3v7h6v-4h48v25h-48v-1h-6v13h6v-6h21v6h6v-6h21v36h-21v-4h-6v4h-21v-3h-6v3h-4v6h70v-6h-6v-185l128-.1v185.1h-91v6h210v-6h-113v-185l160-.2v185.2h-17v6h28v-6h-5v-185l85-.1v185.1h-4v6h7v-2h3v-33h5v-6h-5v-76h42v76h-6v6h9v-3h3v-82h-3v-3h-10v-68h5v-6h-3v-75h17v-6h-114v-156h309v14h6v-14h141v63h-141v-25h-6ZM937,1988h-3v30h-371v-344h372v30h2.3l-.2,2,94.9,11.4v256.6l-95.2,12,.2,2h0ZM1072,2018h-132v-26.3l96.6-12.2-.3-2.5h1.7v-262h-1.8l.4-3.1-95.6-11.5v-26.4h131v344h0ZM1357,96l511-1v235h-511V96ZM1472,647v-68h29v68h-29Z"/>
            <rect class="cls-10" x="850" y="648" width="6" height="26"/>
            <rect class="cls-10" x="850" y="749" width="6" height="28"/>
            <polygon class="cls-10" points="764 1573 764 1567 720 1567 720 1538 714 1538 714 1571 717 1571 717 1573 764 1573"/>
            <rect class="cls-10" x="499" y="1751" width="6" height="194"/>
            <polygon class="cls-10" points="870 1185 857 1185 856.9 1164 851 1164 851.6 1318 721 1318 721.6 1197 716 1197 714.1 1531 361 1529.9 361 1508.9 361 1504.9 361 1462.9 361 1460.9 361 1338.9 361 1334.9 361 1178 361 1176 361 1066 361 1064 361 962 361 956 361 918 412 918 412 915 412 912 412 833 716 833 716 834 716 858 716 859 716 1197 722 1197 722 1078 851 1078 851 1120 857 1120 857 893 851 893 851 1072 722 1072 722 859 722 858 722 837 850 837 850 850 856 850 856 829 850 829 850 831 722 831 722 820 721 820 716 820 715 820 715 827 412 827 412 817 406 817 406 839 235 839 235 842 233 842 233 863 239 863 239 845 406 845 406 912 266 912 266 918 355 918 355 956 355 962 239 962 239 955 233 955 233 956 196 956 196 962 233 962 233 976 239 976 239 968 355 968 355 1012 239 1012 239 999 233 999 233 1034 239 1034 239 1018 355 1018 355 1063 239 1063 239 1056 233 1056 233 1096 239 1096 239 1069 355 1069 355 1132 238 1132 238 1118 232 1118 232 1146 238 1146 238 1138 355 1138 355 1176 355 1178 355 1179 238 1179 238 1169 232 1169 232 1330 238 1330 238 1185 355 1185 355 1335 355 1339 355 1424 238 1424 238 1352 232 1352 232 1441 238 1441 238 1430 355 1430 355 1461 355 1463 355 1480 238 1480 238 1464 232 1464 232 1630 238 1630 238 1613 258 1613 258 1607 238 1607 238 1567 254 1567 254 1561 238 1561 238 1486 355 1486 355 1505 355 1506 297 1506 297 1509 296 1509 296 1561 269 1561 269 1567 296 1567 296 1607 274 1607 274 1613 296 1613 296 1623 299 1623 299 1624 306 1624 306 1618 302 1618 302 1586 338 1586 338 1580 302 1580 302 1512 355 1512 355 1618 320 1618 320 1624 324 1624 324 1636 330 1636 330 1624 355 1624 355 1666 330 1666 330 1651 324 1651 324 1666 268 1666 268 1672 275 1672 275 1692 238 1692 238 1672 253 1672 253 1666 238 1666 238 1652 232 1652 232 1666 196 1666 196 1672 232 1672 232 1695 232 1778 235 1778 235 1782 258 1782 258 1776 238 1776 238 1745 253 1745 253 1759 259 1759 259 1745 275 1745 275 1776 274 1776 274 1782 282 1782 282 1776 281 1776 281 1745 302 1745 302 1758 308 1758 308 1745 325 1745 325 1776 298 1776 298 1782 334 1782 334 1776 331 1776 331 1740 327 1740 327 1739 281 1739 281 1736 275 1736 275 1739 238 1739 238 1721 275 1721 280 1721 281 1721 281 1714 275 1714 275 1715 238 1715 238 1698 275 1698 275 1699 281 1699 281 1672 355 1672 355 1776 349 1776 349 1782 355 1782 355 1787 358 1787 361 1787 361 1790 383 1790 383 1784 364 1784 364 1674 380 1674 380 1668 364 1668 364 1611 371 1611 371 1605 364 1605 364 1536 408 1536.1 408 1605 403 1605 403 1611 440 1611 440 1668 419 1668 419 1674 440 1674 440 1784 423 1784 423 1790 443 1790 443 1788 446 1788 446 1674 449 1674 449 1668 446 1668 446 1608 443 1608 443 1605 414 1605 414 1536 663 1536.8 663 1615 666 1615 666 1616 853 1616 853 1621 859 1621 859 1479 859 1467 859 1387 853 1387 853 1467 853 1479 853 1567 801 1567 801 1573 853 1573 853 1610 669 1610 669 1537 714 1537 714 1538 720 1538 721.2 1324 852 1324 852.1 1345 858 1345 857.4 1191 870 1191 870 1185"/>
            <polygon class="cls-10" points="913 409 920 409 920 403 913 403 913 399 907 399 907 423 913 423 913 409"/>
            <rect class="cls-10" x="918" y="875" width="6" height="187"/>
            <polygon class="cls-10" points="924 1136 932 1136 932 1130 924 1130 924 1104 918 1104 918 1140 924 1140 924 1136"/>
            <polygon class="cls-10" points="930 1375 936 1375 936 1191 939 1191 939 1185 924 1185 924 1183 918 1183 918 1185 907 1185 907 1191 930 1191 930 1375"/>
            <polygon class="cls-10" points="1086 1502 1081 1502 1081 1489 1075 1489 1075 1502 1058 1502 1058 1508 1086 1508 1086 1502"/>
            <path class="cls-10" d="M1518,910h-6v295h-112v-368h112v36h6v-39h-3v-3h-434v-19h-3v-3h-157v2h-3v21h6v-17h151v315h-106v6h106v49h-99v6h99v234h-139v-7h-6v89h4v1h88v-6h-86v-71h139v14h6v-23h175v80h-138v6h141v-3h3v-83h132v60h6v-46h33v-6h-33v-153h57v-6h-57v-60h112v12h6v-34h8v-6h-8v-273ZM1394,1416h-313v-579h313v579Z"/>
            <polygon class="cls-10" points="1320 1653 1314 1653 1314 1668 1156 1668 1156 1595 1314 1595 1314 1617 1320 1617 1320 1592 1317 1592 1317 1589 1153 1589 1153 1592 1150 1592 1150 1668 1127 1668 1127 1674 1150 1674 1150 1709 1156 1709 1156 1674 1213 1674 1213 1785 1156 1785 1156 1744 1150 1744 1150 1785 1131 1785 1131 1791 1332 1791 1332 1785 1320 1785 1320 1761 1314 1761 1314 1785 1219 1785 1219 1674 1314 1674 1314 1724 1320 1724 1320 1674 1334 1674 1334 1668 1320 1668 1320 1653"/>
            <rect class="cls-10" x="1693" y="1705" width="6" height="42"/>
            <rect class="cls-10" x="1512" y="1483" width="6" height="27"/>
            <polygon class="cls-10" points="1512 1271 1494 1271 1494 1277 1512 1277 1512 1430 1470 1430 1470 1436 1512 1436 1512 1447 1518 1447 1518 1258 1512 1258 1512 1271"/>
          </g>
        </g>
        <text class="cls-22" transform="translate(60.78 1963.75)"><tspan x="0" y="0">301</tspan></text>
        <text class="cls-22" transform="translate(27.08 1567.52)"><tspan x="0" y="0">302</tspan></text>
        <text class="cls-22" transform="translate(26.8 1322.25)"><tspan x="0" y="0">3</tspan></text>
        <text class="cls-22" transform="translate(53.25 1322.25)"><tspan x="0" y="0">0</tspan></text>
        <text class="cls-22" transform="translate(83.75 1322.25)"><tspan x="0" y="0">3</tspan></text>
        <text class="cls-22" transform="translate(25.73 1140.75)"><tspan x="0" y="0">304</tspan></text>
        <text class="cls-22" transform="translate(26.18 1017.22)"><tspan x="0" y="0">305</tspan></text>
        <text class="cls-22" transform="translate(256.25 1177.25)"><tspan x="0" y="0">309</tspan></text>
        <text class="cls-22" transform="translate(255.98 1117.98)"><tspan x="0" y="0">308</tspan></text>
        <text class="cls-22" transform="translate(256.1 1057.99)"><tspan x="0" y="0">307</tspan></text>
        <text class="cls-22" transform="translate(255.25 1007.7)"><tspan x="0" y="0">306</tspan></text>
        <text class="cls-22" transform="translate(27.48 706.52)"><tspan x="0" y="0">316</tspan></text>
        <text class="cls-22" transform="translate(161.6 706.52)"><tspan x="0" y="0">3</tspan></text>
        <text class="cls-14" transform="translate(188.05 706.52)"><tspan x="0" y="0">1</tspan></text>
        <text class="cls-22" transform="translate(212.6 706.52)"><tspan x="0" y="0">7</tspan></text>
        <text class="cls-22" transform="translate(298.95 706.52)"><tspan x="0" y="0">318</tspan></text>
        <text class="cls-22" transform="translate(597.98 706.52)"><tspan x="0" y="0">319</tspan></text>
        <text class="cls-22" transform="translate(1104.58 706.52)"><tspan x="0" y="0">320</tspan></text>
        <text class="cls-22" transform="translate(1253.8 708.52)"><tspan x="0" y="0">321</tspan></text>
        <text class="cls-22" transform="translate(1526.49 435.3)"><tspan x="0" y="0">322</tspan></text>
        <text class="cls-19" transform="translate(1415.69 1035.97)"><tspan x="0" y="0">323</tspan></text>
        <text class="cls-22" transform="translate(1415.61 1258.79)"><tspan x="0" y="0">3</tspan></text>
        <text class="cls-15" transform="translate(1442.06 1258.79)"><tspan x="0" y="0">2</tspan></text>
        <text class="cls-22" transform="translate(1467.51 1258.79)"><tspan x="0" y="0">4</tspan></text>
        <text class="cls-22" transform="translate(1415.31 1371.25)"><tspan x="0" y="0">325</tspan></text>
        <text class="cls-22" transform="translate(1470.5 1963.75)"><tspan x="0" y="0">326</tspan></text>
        <text class="cls-22" transform="translate(1733.13 1963.75)"><tspan x="0" y="0">327</tspan></text>
        <text class="cls-22" transform="translate(745.4 974)"><tspan x="0" y="0">315</tspan></text>
        <text class="cls-22" transform="translate(745.78 1216.34)"><tspan x="0" y="0">313</tspan></text>
        <text class="cls-22" transform="translate(745.73 1458.67)"><tspan x="0" y="0">3</tspan><tspan class="cls-12" x="27.81" y="0">1</tspan><tspan x="52.86" y="0">1</tspan></text>
        <text class="cls-22" transform="translate(961.2 974)"><tspan x="0" y="0">3</tspan></text>
        <text class="cls-15" transform="translate(987.65 974)"><tspan x="0" y="0">1</tspan></text>
        <text class="cls-22" transform="translate(1013.2 974)"><tspan x="0" y="0">4</tspan></text>
        <text class="cls-22" transform="translate(961.28 1317.52)"><tspan x="0" y="0">312</tspan></text>
        <text class="cls-21" transform="translate(1187.45 1942.2)"><tspan x="0" y="0">Ц</tspan></text>
        <text class="cls-22" transform="translate(1221.95 1942.2)"><tspan x="0" y="0">ДИ</tspan></text>
        <text class="cls-13" transform="translate(1120.65 1966.2)"><tspan x="0" y="0">ц</tspan></text>
        <text class="cls-20" transform="translate(1131.86 1966.2)"><tspan x="0" y="0">ентр </tspan></text>
        <text class="cls-20" transform="translate(1179.76 1966.2)"><tspan x="0" y="0">д</tspan></text>
        <text class="cls-20" transform="translate(1191.34 1966.2)"><tspan x="0" y="0">е</tspan></text>
        <text class="cls-20" transform="translate(1201.42 1966.2)"><tspan x="0" y="0">т</tspan></text>
        <text class="cls-20" transform="translate(1210.02 1966.2)"><tspan x="0" y="0">ских иници</tspan></text>
        <text class="cls-20" transform="translate(1314.56 1966.2)"><tspan x="0" y="0">а</tspan></text>
        <text class="cls-20" transform="translate(1324.06 1966.2)"><tspan x="0" y="0">тив</tspan></text>
        <g>
          <rect class="cls-11" x="260.5" y="1542.5" width="69" height="69"/>
          <rect class="cls-2" x="260" y="1542" width="69" height="69"/>
          <polygon class="cls-5" points="326 1608.5 264 1608.5 263.5 1608.4 263 1608 262.6 1607.6 262.5 1607 262.5 1545 262.6 1544.4 263 1544 263.5 1543.6 264 1543.5 326 1543.5 326.6 1543.6 327 1544 327.4 1544.4 327.5 1545 327.5 1607 327.4 1607.6 327 1608 326.6 1608.4 326 1608.5"/>
          <polygon class="cls-9" points="326 1543.5 264 1543.5 263.5 1543.6 263 1543.9 262.6 1544.4 262.5 1545 262.5 1553.5 327.5 1553.5 327.5 1545 327.4 1544.4 327 1543.9 326.6 1543.6 326 1543.5"/>
          <polygon class="cls-24" points="298.9 1569 296.2 1569 291.8 1582.6 287.9 1569 285.3 1569 281.4 1582.6 276.8 1569 274.4 1569 280.4 1587 282.7 1587 286.6 1572.8 290.6 1587 292.9 1587 298.9 1569"/>
          <polygon class="cls-24" points="315.6 1583.8 314.9 1581.7 314.4 1582.2 313.9 1582.8 312.5 1583.7 310.9 1584.4 308.9 1584.6 308.1 1584.6 306.8 1584.4 305.1 1583.6 303.7 1582.3 302.8 1580.7 302.4 1579.4 302.3 1577.9 302.3 1577.1 302.6 1575.7 303 1574.4 304.1 1572.9 305.6 1571.9 307.5 1571.2 308.9 1571.1 309.8 1571.2 311.5 1571.6 313.1 1572.4 314.2 1573.4 314.7 1574 315.4 1571.9 314.4 1570.7 313.3 1569.8 312 1569.2 310.5 1568.7 308.7 1568.5 307.8 1568.6 306.1 1568.9 304.6 1569.6 303.2 1570.5 301.9 1571.7 301 1573.2 300.3 1574.9 300 1576.8 299.9 1577.9 300 1578.9 300.3 1580.8 301 1582.5 301.9 1584 303.2 1585.2 304.6 1586.2 306.1 1586.8 307.8 1587.1 308.7 1587.2 309.3 1587.2 311.5 1586.8 313 1586.2 314.2 1585.4 315.1 1584.5 315.6 1583.8"/>
        </g>
        <g>
          <rect class="cls-11" x="1569.5" y="1693.5" width="69" height="69"/>
          <rect class="cls-2" x="1570" y="1693" width="69" height="69"/>
          <polygon class="cls-5" points="1635 1760.5 1573 1760.5 1572.4 1760.4 1572 1760 1571.6 1759.6 1571.5 1759 1571.5 1697 1571.6 1696.4 1572 1696 1572.4 1695.6 1573 1695.5 1635 1695.5 1635.6 1695.6 1636.1 1696 1636.4 1696.4 1636.5 1697 1636.5 1759 1636.4 1759.6 1636.1 1760 1635.6 1760.4 1635 1760.5"/>
          <polygon class="cls-9" points="1635 1695.5 1573 1695.5 1572.4 1695.6 1572 1695.9 1571.6 1696.4 1571.5 1697 1571.5 1705.5 1636.5 1705.5 1636.5 1697 1636.4 1696.4 1636.1 1695.9 1635.6 1695.6 1635 1695.5"/>
          <polygon class="cls-24" points="1608 1720 1605.3 1720 1600.8 1733.6 1596.9 1720 1594.3 1720 1590.4 1733.6 1585.9 1720 1583.4 1720 1589.4 1738 1591.7 1738 1595.6 1723.8 1599.7 1738 1602 1738 1608 1720"/>
          <polygon class="cls-24" points="1624.6 1735.3 1624 1733.2 1623.5 1733.8 1622.9 1734.3 1621.6 1735.3 1619.9 1735.9 1617.9 1736.2 1617.2 1736.1 1615.9 1735.9 1614.1 1735.1 1612.8 1733.9 1611.8 1732.2 1611.5 1730.9 1611.3 1729.4 1611.4 1728.6 1611.6 1727.2 1612.1 1726 1613.1 1724.5 1614.7 1723.4 1616.5 1722.8 1617.9 1722.6 1618.8 1722.7 1620.6 1723.1 1622.1 1723.9 1623.3 1725 1623.7 1725.6 1624.5 1723.4 1623.5 1722.2 1622.4 1721.3 1621.1 1720.7 1619.5 1720.2 1617.8 1720.1 1616.9 1720.1 1615.2 1720.4 1613.6 1721.1 1612.2 1722.1 1611 1723.3 1610.1 1724.8 1609.4 1726.5 1609 1728.4 1608.9 1729.4 1609 1730.4 1609.4 1732.4 1610.1 1734.1 1611 1735.5 1612.2 1736.7 1613.6 1737.7 1615.2 1738.3 1616.8 1738.7 1617.7 1738.7 1618.3 1738.7 1620.6 1738.3 1622 1737.7 1623.2 1736.9 1624.2 1736 1624.6 1735.3"/>
        </g>
        <g>
          <rect class="cls-11" x="966.5" y="636.5" width="69" height="69"/>
          <rect class="cls-2" x="967" y="636" width="69" height="69"/>
          <polygon class="cls-5" points="1032 703.5 970 703.5 969.5 703.4 969 703 968.6 702.6 968.5 702 968.5 640 968.6 639.5 969 639 969.5 638.6 970 638.5 1032 638.5 1032.6 638.6 1033.1 639 1033.4 639.5 1033.5 640 1033.5 702 1033.4 702.6 1033.1 703 1032.6 703.4 1032 703.5"/>
          <polygon class="cls-9" points="1032 638.5 970 638.5 969.5 638.6 969 639 968.6 639.4 968.5 640 968.5 648.5 1033.5 648.5 1033.5 640 1033.4 639.4 1033.1 639 1032.6 638.6 1032 638.5"/>
          <polygon class="cls-24" points="1005.2 663 1002.5 663 998 676.6 994.1 663 991.5 663 987.7 676.6 983.1 663 980.7 663 986.6 681 988.9 681 992.8 666.8 996.9 681 999.2 681 1005.2 663"/>
          <polygon class="cls-24" points="1021.8 678.2 1021.2 676 1020.7 676.6 1020.1 677.2 1018.8 678.1 1017.1 678.8 1015.1 679 1014.4 679 1013.1 678.8 1011.3 678 1010 676.7 1009 675.1 1008.7 673.7 1008.5 672.3 1008.6 671.5 1008.8 670.1 1009.3 668.8 1010.3 667.3 1011.9 666.2 1013.7 665.6 1015.1 665.5 1016.1 665.5 1017.8 666 1019.3 666.8 1020.5 667.8 1020.9 668.4 1021.7 666.3 1020.7 665.1 1019.6 664.2 1018.3 663.5 1016.7 663.1 1015 662.9 1014.1 663 1012.4 663.3 1010.8 664 1009.4 664.9 1008.2 666.1 1007.3 667.6 1006.6 669.3 1006.2 671.2 1006.2 672.3 1006.2 673.3 1006.6 675.2 1007.3 676.9 1008.2 678.4 1009.4 679.6 1010.8 680.5 1012.4 681.2 1014.1 681.5 1014.9 681.6 1015.6 681.5 1017.8 681.1 1019.2 680.6 1020.4 679.8 1021.4 678.9 1021.8 678.2"/>
        </g>
        <text class="cls-22" transform="translate(940.78 273.8)"><tspan x="0" y="0">329</tspan></text>
        <text class="cls-20" transform="translate(721.36 197.99)"><tspan x="0" y="0">Би</tspan></text>
        <text class="cls-20" transform="translate(744.6 197.99)"><tspan x="0" y="0">б</tspan></text>
        <text class="cls-20" transform="translate(755.36 197.99)"><tspan x="0" y="0">ли</tspan></text>
        <text class="cls-20" transform="translate(778.32 197.99)"><tspan class="cls-34" x="0" y="0">о</tspan><tspan x="11.72" y="0">т</tspan></text>
        <text class="cls-20" transform="translate(797.5 197.99)"><tspan x="0" y="0">ека</tspan></text>
        <text class="cls-20" transform="translate(747.75 380.88)"><tspan x="0" y="0">М</tspan><tspan class="cls-29" x="16.66" y="0">уз</tspan><tspan x="37.2" y="0">ей</tspan></text>
        <rect class="cls-7" x="288.5" y="1903.5" width="49" height="50"/>
        <rect class="cls-6" x="288.5" y="1904.5" width="48" height="48"/>
        <polygon class="cls-6" points="334.4 1950.5 291.6 1950.5 291.2 1950.4 290.8 1950.2 290.6 1949.9 290.5 1949.4 290.5 1906.6 290.6 1906.2 290.8 1905.8 291.2 1905.6 291.6 1905.5 334.4 1905.5 334.8 1905.6 335.2 1905.8 335.4 1906.2 335.5 1906.6 335.5 1949.4 335.4 1949.9 335.2 1950.2 334.8 1950.4 334.4 1950.5"/>
        <polygon class="cls-25" points="333.9 1905 291.1 1905 290.7 1905.1 290.3 1905.3 290.1 1905.7 290 1906.1 290 1912 335 1912 335 1906.1 334.9 1905.7 334.7 1905.3 334.3 1905.1 333.9 1905"/>
        <line class="cls-1" x1="298" y1="1941" x2="305" y2="1941"/>
        <line class="cls-1" x1="305" y1="1941" x2="305" y2="1934"/>
        <line class="cls-1" x1="305" y1="1934" x2="313" y2="1934"/>
        <line class="cls-1" x1="313" y1="1934" x2="313" y2="1927"/>
        <line class="cls-1" x1="313" y1="1927" x2="320" y2="1927"/>
        <line class="cls-1" x1="320" y1="1927" x2="320" y2="1919"/>
        <line class="cls-1" x1="320" y1="1919" x2="327" y2="1919"/>
        <rect class="cls-7" x="382.5" y="1904.5" width="49" height="50"/>
        <rect class="cls-6" x="383.5" y="1905.5" width="48" height="48"/>
        <polygon class="cls-6" points="428.4 1952.5 385.6 1952.5 385.2 1952.4 384.8 1952.2 384.6 1951.9 384.5 1951.4 384.5 1908.6 384.6 1908.2 384.8 1907.8 385.2 1907.6 385.6 1907.5 428.4 1907.5 428.8 1907.6 429.2 1907.8 429.4 1908.2 429.5 1908.6 429.5 1951.4 429.4 1951.9 429.2 1952.2 428.8 1952.4 428.4 1952.5"/>
        <polygon class="cls-25" points="428.9 1907 386.1 1907 385.7 1907.1 385.3 1907.3 385.1 1907.7 385 1908.1 385 1914 430 1914 430 1908.1 429.9 1907.7 429.7 1907.3 429.3 1907.1 428.9 1907"/>
        <line class="cls-1" x1="393" y1="1943" x2="400" y2="1943"/>
        <line class="cls-1" x1="400" y1="1943" x2="400" y2="1935"/>
        <line class="cls-1" x1="400" y1="1935" x2="407" y2="1935"/>
        <line class="cls-1" x1="407" y1="1935" x2="407" y2="1928"/>
        <line class="cls-1" x1="407" y1="1928" x2="415" y2="1928"/>
        <line class="cls-1" x1="415" y1="1928" x2="415" y2="1921"/>
        <line class="cls-1" x1="415" y1="1921" x2="422" y2="1921"/>
        <rect class="cls-7" x="1172.5" y="1436.5" width="49" height="50"/>
        <rect class="cls-6" x="1173.5" y="1437.5" width="48" height="48"/>
        <polygon class="cls-6" points="1218.4 1484.5 1175.6 1484.5 1175.2 1484.4 1174.8 1484.2 1174.6 1483.9 1174.5 1483.4 1174.5 1440.6 1174.6 1440.2 1174.8 1439.8 1175.2 1439.6 1175.6 1439.5 1218.4 1439.5 1218.8 1439.6 1219.2 1439.8 1219.4 1440.2 1219.5 1440.6 1219.5 1483.4 1219.4 1483.9 1219.2 1484.2 1218.8 1484.4 1218.4 1484.5"/>
        <polygon class="cls-25" points="1218.9 1439 1176.1 1439 1175.7 1439.1 1175.3 1439.3 1175.1 1439.7 1175 1440.1 1175 1446 1220 1446 1220 1440.1 1219.9 1439.7 1219.7 1439.3 1219.3 1439.1 1218.9 1439"/>
        <line class="cls-1" x1="1183" y1="1475" x2="1190" y2="1475"/>
        <line class="cls-1" x1="1190" y1="1475" x2="1190" y2="1468"/>
        <line class="cls-1" x1="1190" y1="1468" x2="1197" y2="1468"/>
        <line class="cls-1" x1="1197" y1="1468" x2="1197" y2="1460"/>
        <line class="cls-1" x1="1197" y1="1460" x2="1205" y2="1460"/>
        <line class="cls-1" x1="1205" y1="1460" x2="1205" y2="1453"/>
        <line class="cls-1" x1="1205" y1="1453" x2="1212" y2="1453"/>
        <rect class="cls-7" x="1820.5" y="1687.5" width="49" height="50"/>
        <rect class="cls-6" x="1821.5" y="1688.5" width="48" height="48"/>
        <polygon class="cls-6" points="1866.4 1735.5 1823.6 1735.5 1823.2 1735.4 1822.8 1735.2 1822.6 1734.9 1822.5 1734.4 1822.5 1691.6 1822.6 1691.2 1822.8 1690.8 1823.2 1690.6 1823.6 1690.5 1866.4 1690.5 1866.8 1690.6 1867.2 1690.8 1867.4 1691.2 1867.5 1691.6 1867.5 1734.4 1867.4 1734.9 1867.2 1735.2 1866.8 1735.4 1866.4 1735.5"/>
        <polygon class="cls-25" points="1866.9 1690 1824.1 1690 1823.7 1690.1 1823.3 1690.3 1823.1 1690.7 1823 1691.1 1823 1697 1868 1697 1868 1691.1 1867.9 1690.7 1867.7 1690.3 1867.3 1690.1 1866.9 1690"/>
        <line class="cls-1" x1="1831" y1="1726" x2="1838" y2="1726"/>
        <line class="cls-1" x1="1838" y1="1726" x2="1838" y2="1719"/>
        <line class="cls-1" x1="1838" y1="1719" x2="1845" y2="1719"/>
        <line class="cls-1" x1="1845" y1="1719" x2="1845" y2="1711"/>
        <line class="cls-1" x1="1845" y1="1711" x2="1853" y2="1711"/>
        <line class="cls-1" x1="1853" y1="1711" x2="1853" y2="1704"/>
        <line class="cls-1" x1="1853" y1="1704" x2="1860" y2="1704"/>
        <rect class="cls-7" x="1399.5" y="662.5" width="49" height="50"/>
        <rect class="cls-6" x="1399.5" y="663.5" width="48" height="48"/>
        <polygon class="cls-6" points="1445.4 710.5 1402.6 710.5 1402.2 710.4 1401.8 710.2 1401.6 709.9 1401.5 709.5 1401.5 666.5 1401.6 666.2 1401.8 665.8 1402.2 665.6 1402.6 665.5 1445.4 665.5 1445.8 665.6 1446.2 665.8 1446.4 666.2 1446.5 666.5 1446.5 709.5 1446.4 709.9 1446.2 710.2 1445.8 710.4 1445.4 710.5"/>
        <polygon class="cls-25" points="1444.9 665 1402.1 665 1401.7 665.1 1401.3 665.3 1401.1 665.7 1401 666 1401 672 1446 672 1446 666 1445.9 665.7 1445.7 665.3 1445.3 665.1 1444.9 665"/>
        <line class="cls-1" x1="1409" y1="701" x2="1417" y2="701"/>
        <line class="cls-1" x1="1417" y1="701" x2="1417" y2="694"/>
        <line class="cls-1" x1="1417" y1="694" x2="1424" y2="694"/>
        <line class="cls-1" x1="1424" y1="694" x2="1424" y2="686"/>
        <line class="cls-1" x1="1424" y1="686" x2="1431" y2="686"/>
        <line class="cls-1" x1="1431" y1="686" x2="1431" y2="679"/>
        <line class="cls-1" x1="1431" y1="679" x2="1439" y2="679"/>
        <rect class="cls-7" x="1774.5" y="341.5" width="49" height="50"/>
        <rect class="cls-6" x="1775.5" y="342.5" width="48" height="48"/>
        <polygon class="cls-6" points="1820.4 389.5 1777.6 389.5 1777.2 389.4 1776.8 389.2 1776.6 388.9 1776.5 388.5 1776.5 345.5 1776.6 345.1 1776.8 344.8 1777.2 344.6 1777.6 344.5 1820.4 344.5 1820.8 344.6 1821.2 344.8 1821.4 345.1 1821.5 345.5 1821.5 388.5 1821.4 388.9 1821.2 389.2 1820.8 389.4 1820.4 389.5"/>
        <polygon class="cls-25" points="1820.9 344 1778.1 344 1777.7 344.1 1777.3 344.3 1777.1 344.6 1777 345 1777 351 1822 351 1822 345 1821.9 344.6 1821.7 344.3 1821.3 344.1 1820.9 344"/>
        <line class="cls-1" x1="1785" y1="380" x2="1792" y2="380"/>
        <line class="cls-1" x1="1792" y1="380" x2="1792" y2="373"/>
        <line class="cls-1" x1="1792" y1="373" x2="1799" y2="373"/>
        <line class="cls-1" x1="1799" y1="373" x2="1799" y2="365"/>
        <line class="cls-1" x1="1799" y1="365" x2="1806" y2="365"/>
        <line class="cls-1" x1="1806" y1="365" x2="1806" y2="358"/>
        <line class="cls-1" x1="1806" y1="358" x2="1814" y2="358"/>
        <rect class="cls-7" x="973.5" y="421.5" width="49" height="50"/>
        <rect class="cls-6" x="973.5" y="422.5" width="48" height="48"/>
        <polygon class="cls-6" points="1019.4 468.5 976.6 468.5 976.2 468.4 975.8 468.2 975.6 467.9 975.5 467.5 975.5 424.5 975.6 424.1 975.8 423.8 976.2 423.6 976.6 423.5 1019.4 423.5 1019.8 423.6 1020.2 423.8 1020.4 424.1 1020.5 424.5 1020.5 467.5 1020.4 467.9 1020.2 468.2 1019.8 468.4 1019.4 468.5"/>
        <polygon class="cls-25" points="1018.9 424 976.1 424 975.7 424.1 975.3 424.3 975.1 424.6 975 425 975 431 1020 431 1020 425 1019.9 424.6 1019.7 424.3 1019.3 424.1 1018.9 424"/>
        <line class="cls-1" x1="983" y1="460" x2="990" y2="460"/>
        <line class="cls-1" x1="990" y1="460" x2="990" y2="452"/>
        <line class="cls-1" x1="990" y1="452" x2="998" y2="452"/>
        <line class="cls-1" x1="998" y1="452" x2="998" y2="445"/>
        <line class="cls-1" x1="998" y1="445" x2="1005" y2="445"/>
        <line class="cls-1" x1="1005" y1="445" x2="1005" y2="438"/>
        <line class="cls-1" x1="1005" y1="438" x2="1012" y2="438"/>
        <rect class="cls-7" x="306.5" y="852.5" width="49" height="50"/>
        <rect class="cls-6" x="306.5" y="853.5" width="48" height="48"/>
        <polygon class="cls-6" points="352.4 899.5 309.6 899.5 309.2 899.4 308.8 899.2 308.6 898.9 308.5 898.5 308.5 855.5 308.6 855.2 308.8 854.8 309.2 854.6 309.6 854.5 352.4 854.5 352.8 854.6 353.2 854.8 353.4 855.2 353.5 855.5 353.5 898.5 353.4 898.9 353.2 899.2 352.8 899.4 352.4 899.5"/>
        <polygon class="cls-25" points="351.9 855 309.1 855 308.7 855.1 308.3 855.3 308.1 855.7 308 856 308 862 353 862 353 856 352.9 855.7 352.7 855.3 352.3 855.1 351.9 855"/>
        <line class="cls-1" x1="316" y1="890" x2="323" y2="890"/>
        <line class="cls-1" x1="323" y1="891" x2="323" y2="883"/>
        <line class="cls-1" x1="323" y1="883" x2="331" y2="883"/>
        <line class="cls-1" x1="331" y1="883" x2="331" y2="876"/>
        <line class="cls-1" x1="331" y1="876" x2="338" y2="876"/>
        <line class="cls-1" x1="338" y1="876" x2="338" y2="869"/>
        <line class="cls-1" x1="338" y1="869" x2="345" y2="869"/>
        <rect class="cls-26" x="1508" y="318" width="57" height="30"/>
        <rect class="cls-3" x="1575" y="1229.7" width="111.9" height="88.9"/>
        <rect class="cls-3" x="1576.6" y="1417.5" width="111.9" height="88.9"/>
        <rect class="cls-3" x="1512" y="1572.5" width="174.9" height="98.5"/>
        <rect class="cls-3" x="1398" y="1572.5" width="112.9" height="98.5"/>
        <text class="cls-22" transform="translate(254.5 1317.52)"><tspan x="0" y="0">310</tspan></text>
        <text class="cls-23" transform="translate(722.7 41.27)"><tspan x="0" y="0">Фонд закр</tspan><tspan class="cls-33" x="121.95" y="0">ы</tspan><tspan class="cls-32" x="138.48" y="0">т</tspan><tspan x="150.15" y="0">о</tspan><tspan class="cls-33" x="163.77" y="0">г</tspan><tspan x="173.47" y="0">о хранилища</tspan></text>
      </g>
      <g>
        <g>
          <rect class="cls-8" x="745.45" y="388.95" width="65.1" height="65.1"/>
          <text class="cls-16" transform="translate(810.5 454.01)"><tspan x="0" y="0"> </tspan></text>
          <rect class="cls-2" x="745.45" y="388.95" width="64.97" height="65.02"/>
          <polygon class="cls-4" points="807.45 452.44 748.38 452.44 747.83 452.31 747.36 451.97 747.02 451.55 746.89 450.95 746.89 391.88 747.02 391.28 747.36 390.82 747.83 390.52 748.38 390.39 807.45 390.39 808.05 390.52 808.51 390.82 808.81 391.28 808.94 391.88 808.94 450.95 808.81 451.55 808.51 451.97 808.05 452.31 807.45 452.44"/>
          <polygon class="cls-25" points="807.45 390.39 748.38 390.39 747.83 390.52 747.36 390.82 747.02 391.28 746.89 391.84 746.89 400.12 808.94 400.12 808.94 391.84 808.81 391.28 808.51 390.82 808.05 390.52 807.45 390.39"/>
        </g>
        <image width="100" height="100" transform="translate(756.68 404.07) scale(.42)" xlink:href="../../../Downloads/icons8-музей-100.png"/>
      </g>
      <g>
        <g>
          <rect class="cls-8" x="748.09" y="216" width="62.06" height="62.06"/>
          <text class="cls-17" transform="translate(810.1 278.03)"><tspan x="0" y="0"> </tspan></text>
          <rect class="cls-2" x="748.09" y="216" width="61.94" height="61.98"/>
          <polygon class="cls-4" points="807.2 276.52 750.88 276.52 750.35 276.4 749.91 276.08 749.59 275.67 749.46 275.11 749.46 218.79 749.59 218.23 749.91 217.78 750.35 217.5 750.88 217.37 807.2 217.37 807.76 217.5 808.21 217.78 808.49 218.23 808.61 218.79 808.61 275.11 808.49 275.67 808.21 276.08 807.76 276.4 807.2 276.52"/>
          <polygon class="cls-25" points="807.2 217.37 750.88 217.37 750.35 217.5 749.91 217.78 749.59 218.23 749.46 218.75 749.46 226.65 808.61 226.65 808.61 218.75 808.49 218.23 808.21 217.78 807.76 217.5 807.2 217.37"/>
        </g>
        <image width="100" height="100" transform="translate(758.82 230.54) scale(.4)" xlink:href="../../../Downloads/icons8-открытая-книга-100.png"/>
      </g>
      <g>
        <g>
          <rect class="cls-8" x="844.59" y="49.78" width="62.82" height="63.59"/>
          <text class="cls-18" transform="translate(907.36 113.33) scale(.99 1)"><tspan x="0" y="0"> </tspan></text>
          <rect class="cls-2" x="844.59" y="49.78" width="62.7" height="63.51"/>
          <polygon class="cls-4" points="904.42 111.79 847.42 111.79 846.88 111.67 846.43 111.34 846.11 110.92 845.98 110.34 845.98 52.64 846.11 52.06 846.43 51.6 846.88 51.31 847.42 51.19 904.42 51.19 904.99 51.31 905.44 51.6 905.73 52.06 905.85 52.64 905.85 110.34 905.73 110.92 905.44 111.34 904.99 111.67 904.42 111.79"/>
          <polygon class="cls-25" points="904.42 51.19 847.42 51.19 846.88 51.31 846.43 51.6 846.11 52.06 845.98 52.6 845.98 60.69 905.85 60.69 905.85 52.6 905.73 52.06 905.44 51.6 904.99 51.31 904.42 51.19"/>
        </g>
        <image width="100" height="100" transform="translate(854.34 65.13) scale(.41)" xlink:href="../../../Downloads/icons8-стопка-книг-100.png"/>
      </g>
    </g>
  </g>
</svg>